%FSLAX24Y24*%
%MOIN*%
G70*
G01*
G75*
G04 Layer_Physical_Order=4*
G04 Layer_Color=32768*
%ADD10O,0.1083X0.0394*%
%ADD11R,0.1083X0.0394*%
%ADD12R,0.0394X0.0433*%
%ADD13C,0.0177*%
%ADD14R,0.0748X0.0197*%
%ADD15R,0.0197X0.0748*%
%ADD16R,0.0177X0.0669*%
%ADD17R,0.0177X0.0669*%
%ADD18R,0.0500X0.1449*%
%ADD19R,0.0787X0.0551*%
%ADD20R,0.0945X0.0354*%
%ADD21R,0.0433X0.0394*%
%ADD22R,0.1024X0.0945*%
%ADD23R,0.0630X0.0709*%
%ADD24R,0.0945X0.1024*%
%ADD25R,0.1000X0.1400*%
%ADD26R,0.0300X0.0600*%
%ADD27R,0.0709X0.0630*%
%ADD28R,0.0630X0.0512*%
%ADD29C,0.0060*%
%ADD30C,0.0080*%
%ADD31C,0.0120*%
%ADD32C,0.0200*%
%ADD33C,0.0110*%
%ADD34C,0.0160*%
%ADD35C,0.0300*%
%ADD36C,0.0100*%
%ADD37C,0.0472*%
%ADD38R,0.0591X0.0591*%
%ADD39C,0.0591*%
%ADD40C,0.1600*%
%ADD41C,0.0669*%
%ADD42C,0.0200*%
%ADD43C,0.0400*%
%ADD44C,0.0350*%
G36*
X54331Y53150D02*
X46850D01*
Y49110D01*
X44685D01*
X44649Y49102D01*
X44619Y49082D01*
X44494Y48957D01*
X44450Y48981D01*
X44457Y49016D01*
X44444Y49079D01*
X44408Y49133D01*
X44355Y49168D01*
X44291Y49181D01*
X44228Y49168D01*
X44175Y49133D01*
X44139Y49079D01*
X44126Y49016D01*
X44139Y48953D01*
X44121Y48920D01*
X44071Y48917D01*
X44049Y48951D01*
X44050Y48953D01*
X44063Y49016D01*
X44050Y49079D01*
X44014Y49133D01*
X43961Y49168D01*
X43898Y49181D01*
X43834Y49168D01*
X43781Y49133D01*
X43745Y49079D01*
X43732Y49016D01*
X43745Y48953D01*
X43781Y48899D01*
X43834Y48863D01*
X43898Y48851D01*
X43933Y48858D01*
X43952Y48823D01*
X43922Y48782D01*
X43898Y48787D01*
X43834Y48775D01*
X43781Y48739D01*
X43745Y48685D01*
X43732Y48622D01*
X43745Y48559D01*
X43781Y48505D01*
X43834Y48469D01*
X43898Y48457D01*
X43961Y48469D01*
X44014Y48505D01*
X44050Y48559D01*
X44063Y48622D01*
X44057Y48649D01*
X44133Y48725D01*
X44488D01*
X44506Y48729D01*
X44534Y48687D01*
X44532Y48685D01*
X44520Y48622D01*
X44532Y48559D01*
X44568Y48505D01*
X44622Y48469D01*
X44685Y48457D01*
X44748Y48469D01*
X44802Y48505D01*
X44838Y48559D01*
X44850Y48622D01*
X44838Y48685D01*
X44802Y48739D01*
X44748Y48775D01*
X44685Y48787D01*
X44650Y48780D01*
X44626Y48824D01*
X44724Y48922D01*
X46850D01*
Y44882D01*
X37795D01*
Y55224D01*
X37804Y55247D01*
X37813Y55315D01*
X37804Y55383D01*
X37795Y55406D01*
Y56693D01*
Y59449D01*
X54331D01*
Y53150D01*
D02*
G37*
%LPC*%
G36*
X43110Y49181D02*
X43047Y49168D01*
X42993Y49133D01*
X42958Y49079D01*
X42945Y49016D01*
X42958Y48953D01*
X42993Y48899D01*
X43047Y48863D01*
X43110Y48851D01*
X43173Y48863D01*
X43227Y48899D01*
X43263Y48953D01*
X43275Y49016D01*
X43263Y49079D01*
X43227Y49133D01*
X43173Y49168D01*
X43110Y49181D01*
D02*
G37*
G36*
X41929D02*
X41866Y49168D01*
X41812Y49133D01*
X41777Y49079D01*
X41764Y49016D01*
X41777Y48953D01*
X41812Y48899D01*
X41866Y48863D01*
X41929Y48851D01*
X41992Y48863D01*
X42046Y48899D01*
X42082Y48953D01*
X42094Y49016D01*
X42082Y49079D01*
X42046Y49133D01*
X41992Y49168D01*
X41929Y49181D01*
D02*
G37*
G36*
X42717D02*
X42653Y49168D01*
X42600Y49133D01*
X42564Y49079D01*
X42551Y49016D01*
X42564Y48953D01*
X42600Y48899D01*
X42653Y48863D01*
X42717Y48851D01*
X42780Y48863D01*
X42833Y48899D01*
X42869Y48953D01*
X42882Y49016D01*
X42869Y49079D01*
X42833Y49133D01*
X42780Y49168D01*
X42717Y49181D01*
D02*
G37*
G36*
X39961Y49575D02*
X39897Y49562D01*
X39844Y49526D01*
X39808Y49473D01*
X39795Y49409D01*
X39808Y49346D01*
X39844Y49293D01*
X39897Y49257D01*
X39961Y49244D01*
X40024Y49257D01*
X40077Y49293D01*
X40113Y49346D01*
X40126Y49409D01*
X40113Y49473D01*
X40077Y49526D01*
X40024Y49562D01*
X39961Y49575D01*
D02*
G37*
G36*
X39567D02*
X39504Y49562D01*
X39450Y49526D01*
X39414Y49473D01*
X39402Y49409D01*
X39414Y49346D01*
X39450Y49293D01*
X39504Y49257D01*
X39567Y49244D01*
X39630Y49257D01*
X39684Y49293D01*
X39720Y49346D01*
X39732Y49409D01*
X39720Y49473D01*
X39684Y49526D01*
X39630Y49562D01*
X39567Y49575D01*
D02*
G37*
G36*
X43504Y49181D02*
X43441Y49168D01*
X43387Y49133D01*
X43351Y49079D01*
X43339Y49016D01*
X43351Y48953D01*
X43387Y48899D01*
X43441Y48863D01*
X43504Y48851D01*
X43567Y48863D01*
X43621Y48899D01*
X43657Y48953D01*
X43669Y49016D01*
X43657Y49079D01*
X43621Y49133D01*
X43567Y49168D01*
X43504Y49181D01*
D02*
G37*
G36*
X41535D02*
X41472Y49168D01*
X41419Y49133D01*
X41383Y49079D01*
X41370Y49016D01*
X41383Y48953D01*
X41419Y48899D01*
X41472Y48863D01*
X41535Y48851D01*
X41599Y48863D01*
X41652Y48899D01*
X41688Y48953D01*
X41701Y49016D01*
X41688Y49079D01*
X41652Y49133D01*
X41599Y49168D01*
X41535Y49181D01*
D02*
G37*
G36*
X43110Y48787D02*
X43047Y48775D01*
X42993Y48739D01*
X42958Y48685D01*
X42945Y48622D01*
X42958Y48559D01*
X42993Y48505D01*
X43047Y48469D01*
X43110Y48457D01*
X43173Y48469D01*
X43227Y48505D01*
X43263Y48559D01*
X43275Y48622D01*
X43263Y48685D01*
X43227Y48739D01*
X43173Y48775D01*
X43110Y48787D01*
D02*
G37*
G36*
X42717D02*
X42653Y48775D01*
X42600Y48739D01*
X42564Y48685D01*
X42551Y48622D01*
X42564Y48559D01*
X42600Y48505D01*
X42653Y48469D01*
X42717Y48457D01*
X42780Y48469D01*
X42833Y48505D01*
X42869Y48559D01*
X42882Y48622D01*
X42869Y48685D01*
X42833Y48739D01*
X42780Y48775D01*
X42717Y48787D01*
D02*
G37*
G36*
X41929D02*
X41866Y48775D01*
X41812Y48739D01*
X41777Y48685D01*
X41764Y48622D01*
X41777Y48559D01*
X41812Y48505D01*
X41866Y48469D01*
X41929Y48457D01*
X41992Y48469D01*
X42046Y48505D01*
X42082Y48559D01*
X42094Y48622D01*
X42082Y48685D01*
X42046Y48739D01*
X41992Y48775D01*
X41929Y48787D01*
D02*
G37*
G36*
X43504D02*
X43441Y48775D01*
X43387Y48739D01*
X43351Y48685D01*
X43339Y48622D01*
X43351Y48559D01*
X43387Y48505D01*
X43441Y48469D01*
X43504Y48457D01*
X43567Y48469D01*
X43621Y48505D01*
X43657Y48559D01*
X43669Y48622D01*
X43657Y48685D01*
X43621Y48739D01*
X43567Y48775D01*
X43504Y48787D01*
D02*
G37*
G36*
X41142Y49181D02*
X41079Y49168D01*
X41025Y49133D01*
X40989Y49079D01*
X40977Y49016D01*
X40989Y48953D01*
X41025Y48899D01*
X41079Y48863D01*
X41142Y48851D01*
X41205Y48863D01*
X41259Y48899D01*
X41294Y48953D01*
X41307Y49016D01*
X41294Y49079D01*
X41259Y49133D01*
X41205Y49168D01*
X41142Y49181D01*
D02*
G37*
G36*
X40748D02*
X40685Y49168D01*
X40631Y49133D01*
X40595Y49079D01*
X40583Y49016D01*
X40595Y48953D01*
X40631Y48899D01*
X40685Y48863D01*
X40748Y48851D01*
X40811Y48863D01*
X40865Y48899D01*
X40901Y48953D01*
X40913Y49016D01*
X40901Y49079D01*
X40865Y49133D01*
X40811Y49168D01*
X40748Y49181D01*
D02*
G37*
G36*
X45079Y48787D02*
X45016Y48775D01*
X44962Y48739D01*
X44926Y48685D01*
X44914Y48622D01*
X44926Y48559D01*
X44962Y48505D01*
X45016Y48469D01*
X45079Y48457D01*
X45142Y48469D01*
X45196Y48505D01*
X45231Y48559D01*
X45244Y48622D01*
X45231Y48685D01*
X45196Y48739D01*
X45142Y48775D01*
X45079Y48787D01*
D02*
G37*
G36*
X43898Y49968D02*
X43834Y49956D01*
X43781Y49920D01*
X43745Y49866D01*
X43732Y49803D01*
X43745Y49740D01*
X43781Y49686D01*
X43834Y49651D01*
X43898Y49638D01*
X43961Y49651D01*
X44014Y49686D01*
X44050Y49740D01*
X44063Y49803D01*
X44050Y49866D01*
X44014Y49920D01*
X43961Y49956D01*
X43898Y49968D01*
D02*
G37*
G36*
X43504D02*
X43441Y49956D01*
X43387Y49920D01*
X43351Y49866D01*
X43339Y49803D01*
X43351Y49740D01*
X43387Y49686D01*
X43441Y49651D01*
X43504Y49638D01*
X43567Y49651D01*
X43621Y49686D01*
X43657Y49740D01*
X43669Y49803D01*
X43657Y49866D01*
X43621Y49920D01*
X43567Y49956D01*
X43504Y49968D01*
D02*
G37*
G36*
X43110D02*
X43047Y49956D01*
X42993Y49920D01*
X42958Y49866D01*
X42945Y49803D01*
X42958Y49740D01*
X42993Y49686D01*
X43047Y49651D01*
X43110Y49638D01*
X43173Y49651D01*
X43227Y49686D01*
X43263Y49740D01*
X43275Y49803D01*
X43263Y49866D01*
X43227Y49920D01*
X43173Y49956D01*
X43110Y49968D01*
D02*
G37*
G36*
X44685D02*
X44622Y49956D01*
X44568Y49920D01*
X44532Y49866D01*
X44520Y49803D01*
X44532Y49740D01*
X44568Y49686D01*
X44622Y49651D01*
X44685Y49638D01*
X44748Y49651D01*
X44802Y49686D01*
X44838Y49740D01*
X44850Y49803D01*
X44838Y49866D01*
X44802Y49920D01*
X44748Y49956D01*
X44685Y49968D01*
D02*
G37*
G36*
X41535Y50362D02*
X41472Y50349D01*
X41419Y50314D01*
X41383Y50260D01*
X41370Y50197D01*
X41383Y50134D01*
X41419Y50080D01*
X41472Y50044D01*
X41535Y50032D01*
X41599Y50044D01*
X41652Y50080D01*
X41688Y50134D01*
X41701Y50197D01*
X41688Y50260D01*
X41652Y50314D01*
X41599Y50349D01*
X41535Y50362D01*
D02*
G37*
G36*
X41142D02*
X41079Y50349D01*
X41025Y50314D01*
X40989Y50260D01*
X40977Y50197D01*
X40989Y50134D01*
X41025Y50080D01*
X41079Y50044D01*
X41142Y50032D01*
X41205Y50044D01*
X41259Y50080D01*
X41294Y50134D01*
X41307Y50197D01*
X41294Y50260D01*
X41259Y50314D01*
X41205Y50349D01*
X41142Y50362D01*
D02*
G37*
G36*
X39075D02*
X39012Y50349D01*
X38958Y50314D01*
X38922Y50260D01*
X38910Y50197D01*
X38922Y50134D01*
X38958Y50080D01*
X39012Y50044D01*
X39075Y50032D01*
X39138Y50044D01*
X39192Y50080D01*
X39227Y50134D01*
X39240Y50197D01*
X39227Y50260D01*
X39192Y50314D01*
X39138Y50349D01*
X39075Y50362D01*
D02*
G37*
G36*
X42717Y49968D02*
X42653Y49956D01*
X42600Y49920D01*
X42564Y49866D01*
X42551Y49803D01*
X42564Y49740D01*
X42600Y49686D01*
X42653Y49651D01*
X42717Y49638D01*
X42780Y49651D01*
X42833Y49686D01*
X42869Y49740D01*
X42882Y49803D01*
X42869Y49866D01*
X42833Y49920D01*
X42780Y49956D01*
X42717Y49968D01*
D02*
G37*
G36*
X46457Y49870D02*
X46393Y49857D01*
X46340Y49822D01*
X46304Y49768D01*
X46292Y49705D01*
X46304Y49642D01*
X46340Y49588D01*
X46393Y49552D01*
X46457Y49540D01*
X46520Y49552D01*
X46573Y49588D01*
X46609Y49642D01*
X46622Y49705D01*
X46609Y49768D01*
X46573Y49822D01*
X46520Y49857D01*
X46457Y49870D01*
D02*
G37*
G36*
X44685Y49575D02*
X44622Y49562D01*
X44568Y49526D01*
X44532Y49473D01*
X44520Y49409D01*
X44532Y49346D01*
X44568Y49293D01*
X44622Y49257D01*
X44685Y49244D01*
X44748Y49257D01*
X44802Y49293D01*
X44838Y49346D01*
X44850Y49409D01*
X44838Y49473D01*
X44802Y49526D01*
X44748Y49562D01*
X44685Y49575D01*
D02*
G37*
G36*
X40354D02*
X40291Y49562D01*
X40238Y49526D01*
X40202Y49473D01*
X40189Y49409D01*
X40202Y49346D01*
X40238Y49293D01*
X40291Y49257D01*
X40354Y49244D01*
X40418Y49257D01*
X40471Y49293D01*
X40507Y49346D01*
X40519Y49409D01*
X40507Y49473D01*
X40471Y49526D01*
X40418Y49562D01*
X40354Y49575D01*
D02*
G37*
G36*
X40748Y49968D02*
X40685Y49956D01*
X40631Y49920D01*
X40595Y49866D01*
X40583Y49803D01*
X40595Y49740D01*
X40631Y49686D01*
X40685Y49651D01*
X40748Y49638D01*
X40811Y49651D01*
X40865Y49686D01*
X40901Y49740D01*
X40913Y49803D01*
X40901Y49866D01*
X40865Y49920D01*
X40811Y49956D01*
X40748Y49968D01*
D02*
G37*
G36*
X41929D02*
X41866Y49956D01*
X41812Y49920D01*
X41777Y49866D01*
X41764Y49803D01*
X41777Y49740D01*
X41812Y49686D01*
X41866Y49651D01*
X41929Y49638D01*
X41992Y49651D01*
X42046Y49686D01*
X42082Y49740D01*
X42094Y49803D01*
X42082Y49866D01*
X42046Y49920D01*
X41992Y49956D01*
X41929Y49968D01*
D02*
G37*
G36*
X41535D02*
X41472Y49956D01*
X41419Y49920D01*
X41383Y49866D01*
X41370Y49803D01*
X41383Y49740D01*
X41419Y49686D01*
X41472Y49651D01*
X41535Y49638D01*
X41599Y49651D01*
X41652Y49686D01*
X41688Y49740D01*
X41701Y49803D01*
X41688Y49866D01*
X41652Y49920D01*
X41599Y49956D01*
X41535Y49968D01*
D02*
G37*
G36*
X41142D02*
X41079Y49956D01*
X41025Y49920D01*
X40989Y49866D01*
X40977Y49803D01*
X40989Y49740D01*
X41025Y49686D01*
X41079Y49651D01*
X41142Y49638D01*
X41205Y49651D01*
X41259Y49686D01*
X41294Y49740D01*
X41307Y49803D01*
X41294Y49866D01*
X41259Y49920D01*
X41205Y49956D01*
X41142Y49968D01*
D02*
G37*
G36*
X40748Y47212D02*
X40685Y47200D01*
X40631Y47164D01*
X40595Y47110D01*
X40583Y47047D01*
X40595Y46984D01*
X40631Y46930D01*
X40685Y46895D01*
X40748Y46882D01*
X40811Y46895D01*
X40865Y46930D01*
X40901Y46984D01*
X40913Y47047D01*
X40901Y47110D01*
X40865Y47164D01*
X40811Y47200D01*
X40748Y47212D01*
D02*
G37*
G36*
X40354D02*
X40291Y47200D01*
X40238Y47164D01*
X40202Y47110D01*
X40189Y47047D01*
X40202Y46984D01*
X40238Y46930D01*
X40291Y46895D01*
X40354Y46882D01*
X40418Y46895D01*
X40471Y46930D01*
X40507Y46984D01*
X40519Y47047D01*
X40507Y47110D01*
X40471Y47164D01*
X40418Y47200D01*
X40354Y47212D01*
D02*
G37*
G36*
X39961D02*
X39897Y47200D01*
X39844Y47164D01*
X39808Y47110D01*
X39795Y47047D01*
X39808Y46984D01*
X39844Y46930D01*
X39897Y46895D01*
X39961Y46882D01*
X40024Y46895D01*
X40077Y46930D01*
X40113Y46984D01*
X40126Y47047D01*
X40113Y47110D01*
X40077Y47164D01*
X40024Y47200D01*
X39961Y47212D01*
D02*
G37*
G36*
X44291D02*
X44228Y47200D01*
X44175Y47164D01*
X44139Y47110D01*
X44126Y47047D01*
X44139Y46984D01*
X44175Y46930D01*
X44228Y46895D01*
X44291Y46882D01*
X44355Y46895D01*
X44408Y46930D01*
X44444Y46984D01*
X44457Y47047D01*
X44444Y47110D01*
X44408Y47164D01*
X44355Y47200D01*
X44291Y47212D01*
D02*
G37*
G36*
X38583Y49870D02*
X38519Y49857D01*
X38466Y49822D01*
X38430Y49768D01*
X38417Y49705D01*
X38430Y49642D01*
X38458Y49599D01*
Y47047D01*
X38468Y47000D01*
X38495Y46959D01*
X38617Y46837D01*
X38627Y46787D01*
X38663Y46734D01*
X38716Y46698D01*
X38780Y46685D01*
X38843Y46698D01*
X38896Y46734D01*
X38932Y46787D01*
X38945Y46850D01*
X38932Y46914D01*
X38896Y46967D01*
X38843Y47003D01*
X38793Y47013D01*
X38707Y47099D01*
Y47516D01*
X38755Y47530D01*
X38761Y47521D01*
X38815Y47485D01*
X38878Y47473D01*
X38941Y47485D01*
X38995Y47521D01*
X39031Y47575D01*
X39043Y47638D01*
X39031Y47701D01*
X38995Y47755D01*
X38941Y47790D01*
X38878Y47803D01*
X38815Y47790D01*
X38761Y47755D01*
X38755Y47745D01*
X38707Y47760D01*
Y49599D01*
X38735Y49642D01*
X38748Y49705D01*
X38735Y49768D01*
X38699Y49822D01*
X38646Y49857D01*
X38583Y49870D01*
D02*
G37*
G36*
X44291Y47606D02*
X44228Y47594D01*
X44175Y47558D01*
X44139Y47504D01*
X44126Y47441D01*
X44139Y47378D01*
X44175Y47324D01*
X44228Y47288D01*
X44291Y47276D01*
X44355Y47288D01*
X44408Y47324D01*
X44444Y47378D01*
X44457Y47441D01*
X44444Y47504D01*
X44408Y47558D01*
X44355Y47594D01*
X44291Y47606D01*
D02*
G37*
G36*
X39567D02*
X39504Y47594D01*
X39450Y47558D01*
X39414Y47504D01*
X39402Y47441D01*
X39414Y47378D01*
X39450Y47324D01*
X39504Y47288D01*
X39567Y47276D01*
X39630Y47288D01*
X39684Y47324D01*
X39720Y47378D01*
X39732Y47441D01*
X39720Y47504D01*
X39684Y47558D01*
X39630Y47594D01*
X39567Y47606D01*
D02*
G37*
G36*
X45079Y46819D02*
X45016Y46806D01*
X44962Y46770D01*
X44926Y46717D01*
X44914Y46654D01*
X44926Y46590D01*
X44962Y46537D01*
X45016Y46501D01*
X45079Y46488D01*
X45142Y46501D01*
X45196Y46537D01*
X45231Y46590D01*
X45244Y46654D01*
X45231Y46717D01*
X45196Y46770D01*
X45142Y46806D01*
X45079Y46819D01*
D02*
G37*
G36*
X39173Y46425D02*
X39110Y46412D01*
X39056Y46377D01*
X39021Y46323D01*
X39008Y46260D01*
X39021Y46197D01*
X39056Y46143D01*
X39110Y46107D01*
X39173Y46095D01*
X39236Y46107D01*
X39290Y46143D01*
X39326Y46197D01*
X39338Y46260D01*
X39326Y46323D01*
X39290Y46377D01*
X39236Y46412D01*
X39173Y46425D01*
D02*
G37*
G36*
X43307Y46327D02*
X43244Y46314D01*
X43190Y46278D01*
X43154Y46225D01*
X43142Y46161D01*
X43154Y46098D01*
X43190Y46045D01*
X43244Y46009D01*
X43307Y45996D01*
X43370Y46009D01*
X43424Y46045D01*
X43460Y46098D01*
X43472Y46161D01*
X43460Y46225D01*
X43424Y46278D01*
X43370Y46314D01*
X43307Y46327D01*
D02*
G37*
G36*
X41339Y46327D02*
X41275Y46314D01*
X41222Y46278D01*
X41186Y46225D01*
X41173Y46161D01*
X41186Y46098D01*
X41222Y46045D01*
X41275Y46009D01*
X41339Y45996D01*
X41402Y46009D01*
X41455Y46045D01*
X41491Y46098D01*
X41504Y46161D01*
X41491Y46225D01*
X41455Y46278D01*
X41402Y46314D01*
X41339Y46327D01*
D02*
G37*
G36*
X45472Y46425D02*
X45409Y46412D01*
X45356Y46377D01*
X45320Y46323D01*
X45307Y46260D01*
X45320Y46197D01*
X45356Y46143D01*
X45409Y46107D01*
X45472Y46095D01*
X45536Y46107D01*
X45589Y46143D01*
X45625Y46197D01*
X45638Y46260D01*
X45625Y46323D01*
X45589Y46377D01*
X45536Y46412D01*
X45472Y46425D01*
D02*
G37*
G36*
X44685Y46819D02*
X44622Y46806D01*
X44568Y46770D01*
X44532Y46717D01*
X44520Y46654D01*
X44532Y46590D01*
X44568Y46537D01*
X44622Y46501D01*
X44685Y46488D01*
X44748Y46501D01*
X44802Y46537D01*
X44838Y46590D01*
X44850Y46654D01*
X44838Y46717D01*
X44802Y46770D01*
X44748Y46806D01*
X44685Y46819D01*
D02*
G37*
G36*
X41929D02*
X41866Y46806D01*
X41812Y46770D01*
X41777Y46717D01*
X41764Y46654D01*
X41777Y46590D01*
X41812Y46537D01*
X41866Y46501D01*
X41929Y46488D01*
X41992Y46501D01*
X42046Y46537D01*
X42082Y46590D01*
X42094Y46654D01*
X42082Y46717D01*
X42046Y46770D01*
X41992Y46806D01*
X41929Y46819D01*
D02*
G37*
G36*
X39567D02*
X39504Y46806D01*
X39450Y46770D01*
X39414Y46717D01*
X39402Y46654D01*
X39414Y46590D01*
X39450Y46537D01*
X39504Y46501D01*
X39567Y46488D01*
X39630Y46501D01*
X39684Y46537D01*
X39720Y46590D01*
X39732Y46654D01*
X39720Y46717D01*
X39684Y46770D01*
X39630Y46806D01*
X39567Y46819D01*
D02*
G37*
G36*
X44685Y48394D02*
X44622Y48381D01*
X44568Y48345D01*
X44532Y48292D01*
X44520Y48228D01*
X44532Y48165D01*
X44568Y48112D01*
X44622Y48076D01*
X44685Y48063D01*
X44748Y48076D01*
X44802Y48112D01*
X44838Y48165D01*
X44850Y48228D01*
X44838Y48292D01*
X44802Y48345D01*
X44748Y48381D01*
X44685Y48394D01*
D02*
G37*
G36*
X44291D02*
X44228Y48381D01*
X44175Y48345D01*
X44139Y48292D01*
X44126Y48228D01*
X44139Y48165D01*
X44175Y48112D01*
X44228Y48076D01*
X44291Y48063D01*
X44355Y48076D01*
X44408Y48112D01*
X44444Y48165D01*
X44457Y48228D01*
X44444Y48292D01*
X44408Y48345D01*
X44355Y48381D01*
X44291Y48394D01*
D02*
G37*
G36*
X43504D02*
X43441Y48381D01*
X43387Y48345D01*
X43351Y48292D01*
X43339Y48228D01*
X43351Y48165D01*
X43387Y48112D01*
X43441Y48076D01*
X43504Y48063D01*
X43567Y48076D01*
X43621Y48112D01*
X43657Y48165D01*
X43669Y48228D01*
X43657Y48292D01*
X43621Y48345D01*
X43567Y48381D01*
X43504Y48394D01*
D02*
G37*
G36*
X39173Y48787D02*
X39110Y48775D01*
X39056Y48739D01*
X39021Y48685D01*
X39008Y48622D01*
X39021Y48559D01*
X39056Y48505D01*
X39110Y48469D01*
X39173Y48457D01*
X39236Y48469D01*
X39290Y48505D01*
X39326Y48559D01*
X39338Y48622D01*
X39326Y48685D01*
X39290Y48739D01*
X39236Y48775D01*
X39173Y48787D01*
D02*
G37*
G36*
X41535D02*
X41472Y48775D01*
X41419Y48739D01*
X41383Y48685D01*
X41370Y48622D01*
X41383Y48559D01*
X41419Y48505D01*
X41472Y48469D01*
X41535Y48457D01*
X41599Y48469D01*
X41652Y48505D01*
X41688Y48559D01*
X41701Y48622D01*
X41688Y48685D01*
X41652Y48739D01*
X41599Y48775D01*
X41535Y48787D01*
D02*
G37*
G36*
X41142D02*
X41079Y48775D01*
X41025Y48739D01*
X40989Y48685D01*
X40977Y48622D01*
X40989Y48559D01*
X41025Y48505D01*
X41079Y48469D01*
X41142Y48457D01*
X41205Y48469D01*
X41259Y48505D01*
X41294Y48559D01*
X41307Y48622D01*
X41294Y48685D01*
X41259Y48739D01*
X41205Y48775D01*
X41142Y48787D01*
D02*
G37*
G36*
X40748D02*
X40685Y48775D01*
X40631Y48739D01*
X40595Y48685D01*
X40583Y48622D01*
X40595Y48559D01*
X40631Y48505D01*
X40685Y48469D01*
X40748Y48457D01*
X40811Y48469D01*
X40865Y48505D01*
X40901Y48559D01*
X40913Y48622D01*
X40901Y48685D01*
X40865Y48739D01*
X40811Y48775D01*
X40748Y48787D01*
D02*
G37*
G36*
X43110Y48394D02*
X43047Y48381D01*
X42993Y48345D01*
X42958Y48292D01*
X42945Y48228D01*
X42958Y48165D01*
X42993Y48112D01*
X43047Y48076D01*
X43110Y48063D01*
X43173Y48076D01*
X43227Y48112D01*
X43263Y48165D01*
X43275Y48228D01*
X43263Y48292D01*
X43227Y48345D01*
X43173Y48381D01*
X43110Y48394D01*
D02*
G37*
G36*
X44685Y48000D02*
X44622Y47987D01*
X44568Y47951D01*
X44532Y47898D01*
X44520Y47835D01*
X44532Y47771D01*
X44568Y47718D01*
X44622Y47682D01*
X44685Y47669D01*
X44748Y47682D01*
X44802Y47718D01*
X44838Y47771D01*
X44850Y47835D01*
X44838Y47898D01*
X44802Y47951D01*
X44748Y47987D01*
X44685Y48000D01*
D02*
G37*
G36*
X42717D02*
X42653Y47987D01*
X42600Y47951D01*
X42564Y47898D01*
X42551Y47835D01*
X42564Y47771D01*
X42600Y47718D01*
X42653Y47682D01*
X42717Y47669D01*
X42780Y47682D01*
X42833Y47718D01*
X42869Y47771D01*
X42882Y47835D01*
X42869Y47898D01*
X42833Y47951D01*
X42780Y47987D01*
X42717Y48000D01*
D02*
G37*
G36*
X41929D02*
X41866Y47987D01*
X41812Y47951D01*
X41777Y47898D01*
X41764Y47835D01*
X41777Y47771D01*
X41812Y47718D01*
X41866Y47682D01*
X41929Y47669D01*
X41992Y47682D01*
X42046Y47718D01*
X42082Y47771D01*
X42094Y47835D01*
X42082Y47898D01*
X42046Y47951D01*
X41992Y47987D01*
X41929Y48000D01*
D02*
G37*
G36*
X41142Y48394D02*
X41079Y48381D01*
X41025Y48345D01*
X40989Y48292D01*
X40977Y48228D01*
X40989Y48165D01*
X41025Y48112D01*
X41079Y48076D01*
X41142Y48063D01*
X41205Y48076D01*
X41259Y48112D01*
X41294Y48165D01*
X41307Y48228D01*
X41294Y48292D01*
X41259Y48345D01*
X41205Y48381D01*
X41142Y48394D01*
D02*
G37*
G36*
X42717D02*
X42653Y48381D01*
X42600Y48345D01*
X42564Y48292D01*
X42551Y48228D01*
X42564Y48165D01*
X42600Y48112D01*
X42653Y48076D01*
X42717Y48063D01*
X42780Y48076D01*
X42833Y48112D01*
X42869Y48165D01*
X42882Y48228D01*
X42869Y48292D01*
X42833Y48345D01*
X42780Y48381D01*
X42717Y48394D01*
D02*
G37*
G36*
X41929D02*
X41866Y48381D01*
X41812Y48345D01*
X41777Y48292D01*
X41764Y48228D01*
X41777Y48165D01*
X41812Y48112D01*
X41866Y48076D01*
X41929Y48063D01*
X41992Y48076D01*
X42046Y48112D01*
X42082Y48165D01*
X42094Y48228D01*
X42082Y48292D01*
X42046Y48345D01*
X41992Y48381D01*
X41929Y48394D01*
D02*
G37*
G36*
X41535D02*
X41472Y48381D01*
X41419Y48345D01*
X41383Y48292D01*
X41370Y48228D01*
X41383Y48165D01*
X41419Y48112D01*
X41472Y48076D01*
X41535Y48063D01*
X41599Y48076D01*
X41652Y48112D01*
X41688Y48165D01*
X41701Y48228D01*
X41688Y48292D01*
X41652Y48345D01*
X41599Y48381D01*
X41535Y48394D01*
D02*
G37*
G36*
X41400Y55173D02*
X41332Y55164D01*
X41268Y55138D01*
X41213Y55096D01*
X41171Y55041D01*
X41145Y54977D01*
X41136Y54909D01*
X41145Y54841D01*
X41171Y54777D01*
X41213Y54722D01*
X41268Y54680D01*
X41332Y54654D01*
X41400Y54645D01*
X41468Y54654D01*
X41532Y54680D01*
X41587Y54722D01*
X41629Y54777D01*
X41655Y54841D01*
X41664Y54909D01*
X41655Y54977D01*
X41629Y55041D01*
X41587Y55096D01*
X41532Y55138D01*
X41468Y55164D01*
X41400Y55173D01*
D02*
G37*
G36*
X39442Y55159D02*
X39373Y55150D01*
X39310Y55123D01*
X39255Y55081D01*
X39213Y55027D01*
X39186Y54963D01*
X39177Y54894D01*
X39186Y54826D01*
X39213Y54762D01*
X39255Y54708D01*
X39310Y54666D01*
X39373Y54639D01*
X39442Y54630D01*
X39510Y54639D01*
X39574Y54666D01*
X39629Y54708D01*
X39671Y54762D01*
X39697Y54826D01*
X39706Y54894D01*
X39697Y54963D01*
X39671Y55027D01*
X39629Y55081D01*
X39574Y55123D01*
X39510Y55150D01*
X39442Y55159D01*
D02*
G37*
G36*
X45620Y54939D02*
X45552Y54930D01*
X45488Y54904D01*
X45433Y54862D01*
X45391Y54807D01*
X45365Y54744D01*
X45356Y54675D01*
X45365Y54607D01*
X45391Y54543D01*
X45433Y54488D01*
X45488Y54446D01*
X45552Y54420D01*
X45620Y54411D01*
X45688Y54420D01*
X45752Y54446D01*
X45807Y54488D01*
X45849Y54543D01*
X45875Y54607D01*
X45884Y54675D01*
X45875Y54744D01*
X45849Y54807D01*
X45807Y54862D01*
X45752Y54904D01*
X45688Y54930D01*
X45620Y54939D01*
D02*
G37*
G36*
X50197Y55481D02*
X50128Y55472D01*
X50065Y55445D01*
X50010Y55403D01*
X49968Y55349D01*
X49942Y55285D01*
X49933Y55217D01*
X49942Y55148D01*
X49968Y55084D01*
X50010Y55030D01*
X50065Y54988D01*
X50128Y54961D01*
X50197Y54952D01*
X50265Y54961D01*
X50329Y54988D01*
X50384Y55030D01*
X50426Y55084D01*
X50452Y55148D01*
X50461Y55217D01*
X50452Y55285D01*
X50426Y55349D01*
X50384Y55403D01*
X50329Y55445D01*
X50265Y55472D01*
X50197Y55481D01*
D02*
G37*
G36*
X44439Y55825D02*
X44371Y55816D01*
X44307Y55790D01*
X44252Y55748D01*
X44210Y55693D01*
X44184Y55629D01*
X44175Y55561D01*
X44184Y55493D01*
X44210Y55429D01*
X44252Y55374D01*
X44307Y55332D01*
X44371Y55306D01*
X44439Y55297D01*
X44507Y55306D01*
X44571Y55332D01*
X44626Y55374D01*
X44668Y55429D01*
X44694Y55493D01*
X44703Y55561D01*
X44694Y55629D01*
X44668Y55693D01*
X44626Y55748D01*
X44571Y55790D01*
X44507Y55816D01*
X44439Y55825D01*
D02*
G37*
G36*
X47293Y55727D02*
X47225Y55718D01*
X47161Y55691D01*
X47106Y55649D01*
X47064Y55595D01*
X47038Y55531D01*
X47029Y55463D01*
X47038Y55394D01*
X47064Y55330D01*
X47106Y55276D01*
X47161Y55234D01*
X47225Y55207D01*
X47293Y55198D01*
X47362Y55207D01*
X47425Y55234D01*
X47480Y55276D01*
X47522Y55330D01*
X47549Y55394D01*
X47558Y55463D01*
X47549Y55531D01*
X47522Y55595D01*
X47480Y55649D01*
X47425Y55691D01*
X47362Y55718D01*
X47293Y55727D01*
D02*
G37*
G36*
X43012Y55579D02*
X42943Y55570D01*
X42880Y55544D01*
X42825Y55502D01*
X42783Y55447D01*
X42757Y55383D01*
X42748Y55315D01*
X42757Y55247D01*
X42783Y55183D01*
X42825Y55128D01*
X42880Y55086D01*
X42943Y55060D01*
X43012Y55051D01*
X43080Y55060D01*
X43144Y55086D01*
X43199Y55128D01*
X43241Y55183D01*
X43267Y55247D01*
X43276Y55315D01*
X43267Y55383D01*
X43241Y55447D01*
X43199Y55502D01*
X43144Y55544D01*
X43080Y55570D01*
X43012Y55579D01*
D02*
G37*
G36*
X44488Y54890D02*
X44420Y54881D01*
X44356Y54855D01*
X44301Y54813D01*
X44259Y54758D01*
X44233Y54694D01*
X44224Y54626D01*
X44233Y54558D01*
X44259Y54494D01*
X44301Y54439D01*
X44356Y54397D01*
X44420Y54371D01*
X44488Y54362D01*
X44557Y54371D01*
X44620Y54397D01*
X44675Y54439D01*
X44717Y54494D01*
X44743Y54558D01*
X44752Y54626D01*
X44743Y54694D01*
X44717Y54758D01*
X44675Y54813D01*
X44620Y54855D01*
X44557Y54881D01*
X44488Y54890D01*
D02*
G37*
G36*
X44882Y54300D02*
X44813Y54291D01*
X44750Y54264D01*
X44695Y54222D01*
X44653Y54168D01*
X44627Y54104D01*
X44618Y54035D01*
X44627Y53967D01*
X44653Y53903D01*
X44695Y53849D01*
X44750Y53807D01*
X44813Y53780D01*
X44882Y53771D01*
X44950Y53780D01*
X45014Y53807D01*
X45069Y53849D01*
X45111Y53903D01*
X45137Y53967D01*
X45146Y54035D01*
X45137Y54104D01*
X45111Y54168D01*
X45069Y54222D01*
X45014Y54264D01*
X44950Y54291D01*
X44882Y54300D01*
D02*
G37*
G36*
X42028Y54054D02*
X41959Y54045D01*
X41895Y54018D01*
X41841Y53976D01*
X41799Y53921D01*
X41772Y53858D01*
X41763Y53789D01*
X41772Y53721D01*
X41799Y53657D01*
X41841Y53603D01*
X41895Y53561D01*
X41959Y53534D01*
X42028Y53525D01*
X42096Y53534D01*
X42160Y53561D01*
X42214Y53603D01*
X42256Y53657D01*
X42283Y53721D01*
X42292Y53789D01*
X42283Y53858D01*
X42256Y53921D01*
X42214Y53976D01*
X42160Y54018D01*
X42096Y54045D01*
X42028Y54054D01*
D02*
G37*
G36*
X52559Y53808D02*
X52491Y53799D01*
X52427Y53772D01*
X52372Y53730D01*
X52330Y53675D01*
X52304Y53612D01*
X52295Y53543D01*
X52304Y53475D01*
X52330Y53411D01*
X52372Y53356D01*
X52427Y53314D01*
X52491Y53288D01*
X52559Y53279D01*
X52627Y53288D01*
X52691Y53314D01*
X52746Y53356D01*
X52788Y53411D01*
X52814Y53475D01*
X52823Y53543D01*
X52814Y53612D01*
X52788Y53675D01*
X52746Y53730D01*
X52691Y53772D01*
X52627Y53799D01*
X52559Y53808D01*
D02*
G37*
G36*
X47293Y54300D02*
X47225Y54291D01*
X47161Y54264D01*
X47106Y54222D01*
X47064Y54168D01*
X47038Y54104D01*
X47029Y54035D01*
X47038Y53967D01*
X47064Y53903D01*
X47106Y53849D01*
X47161Y53807D01*
X47225Y53780D01*
X47293Y53771D01*
X47362Y53780D01*
X47425Y53807D01*
X47480Y53849D01*
X47522Y53903D01*
X47549Y53967D01*
X47558Y54035D01*
X47549Y54104D01*
X47522Y54168D01*
X47480Y54222D01*
X47425Y54264D01*
X47362Y54291D01*
X47293Y54300D01*
D02*
G37*
G36*
X38507Y54864D02*
X38439Y54855D01*
X38375Y54829D01*
X38321Y54787D01*
X38279Y54732D01*
X38252Y54668D01*
X38243Y54600D01*
X38252Y54532D01*
X38279Y54468D01*
X38321Y54413D01*
X38375Y54371D01*
X38439Y54345D01*
X38507Y54336D01*
X38576Y54345D01*
X38640Y54371D01*
X38694Y54413D01*
X38736Y54468D01*
X38763Y54532D01*
X38772Y54600D01*
X38763Y54668D01*
X38736Y54732D01*
X38694Y54787D01*
X38640Y54829D01*
X38576Y54855D01*
X38507Y54864D01*
D02*
G37*
G36*
X48228Y54841D02*
X48160Y54832D01*
X48096Y54806D01*
X48041Y54764D01*
X47999Y54709D01*
X47973Y54645D01*
X47964Y54577D01*
X47973Y54508D01*
X47999Y54445D01*
X48041Y54390D01*
X48096Y54348D01*
X48160Y54322D01*
X48228Y54313D01*
X48297Y54322D01*
X48360Y54348D01*
X48415Y54390D01*
X48457Y54445D01*
X48484Y54508D01*
X48493Y54577D01*
X48484Y54645D01*
X48457Y54709D01*
X48415Y54764D01*
X48360Y54806D01*
X48297Y54832D01*
X48228Y54841D01*
D02*
G37*
G36*
X53367Y54664D02*
X53298Y54655D01*
X53234Y54629D01*
X53180Y54587D01*
X53138Y54532D01*
X53111Y54468D01*
X53102Y54400D01*
X53111Y54332D01*
X53138Y54268D01*
X53180Y54213D01*
X53234Y54171D01*
X53298Y54145D01*
X53367Y54136D01*
X53435Y54145D01*
X53499Y54171D01*
X53553Y54213D01*
X53595Y54268D01*
X53622Y54332D01*
X53631Y54400D01*
X53622Y54468D01*
X53595Y54532D01*
X53553Y54587D01*
X53499Y54629D01*
X53435Y54655D01*
X53367Y54664D01*
D02*
G37*
G36*
X46000Y58469D02*
X45932Y58460D01*
X45868Y58434D01*
X45813Y58392D01*
X45771Y58337D01*
X45745Y58273D01*
X45736Y58205D01*
X45745Y58136D01*
X45771Y58073D01*
X45813Y58018D01*
X45868Y57976D01*
X45932Y57949D01*
X46000Y57940D01*
X46068Y57949D01*
X46132Y57976D01*
X46187Y58018D01*
X46229Y58073D01*
X46255Y58136D01*
X46264Y58205D01*
X46255Y58273D01*
X46229Y58337D01*
X46187Y58392D01*
X46132Y58434D01*
X46068Y58460D01*
X46000Y58469D01*
D02*
G37*
G36*
X38927Y57794D02*
X38859Y57785D01*
X38795Y57758D01*
X38740Y57716D01*
X38698Y57662D01*
X38672Y57598D01*
X38663Y57530D01*
X38672Y57461D01*
X38698Y57397D01*
X38740Y57343D01*
X38795Y57301D01*
X38859Y57274D01*
X38927Y57265D01*
X38996Y57274D01*
X39059Y57301D01*
X39114Y57343D01*
X39156Y57397D01*
X39182Y57461D01*
X39191Y57530D01*
X39182Y57598D01*
X39156Y57662D01*
X39114Y57716D01*
X39059Y57758D01*
X38996Y57785D01*
X38927Y57794D01*
D02*
G37*
G36*
X49065Y57597D02*
X48997Y57588D01*
X48933Y57562D01*
X48878Y57520D01*
X48836Y57465D01*
X48810Y57401D01*
X48801Y57333D01*
X48810Y57264D01*
X48836Y57201D01*
X48878Y57146D01*
X48933Y57104D01*
X48997Y57077D01*
X49065Y57068D01*
X49133Y57077D01*
X49197Y57104D01*
X49252Y57146D01*
X49294Y57201D01*
X49320Y57264D01*
X49329Y57333D01*
X49320Y57401D01*
X49294Y57465D01*
X49252Y57520D01*
X49197Y57562D01*
X49133Y57588D01*
X49065Y57597D01*
D02*
G37*
G36*
X48228Y58483D02*
X48160Y58474D01*
X48096Y58447D01*
X48041Y58405D01*
X47999Y58351D01*
X47973Y58287D01*
X47964Y58218D01*
X47973Y58150D01*
X47999Y58086D01*
X48041Y58032D01*
X48096Y57990D01*
X48160Y57963D01*
X48228Y57954D01*
X48297Y57963D01*
X48360Y57990D01*
X48415Y58032D01*
X48457Y58086D01*
X48484Y58150D01*
X48493Y58218D01*
X48484Y58287D01*
X48457Y58351D01*
X48415Y58405D01*
X48360Y58447D01*
X48297Y58474D01*
X48228Y58483D01*
D02*
G37*
G36*
X52000Y58964D02*
X51932Y58955D01*
X51868Y58929D01*
X51813Y58887D01*
X51771Y58832D01*
X51745Y58768D01*
X51736Y58700D01*
X51745Y58632D01*
X51771Y58568D01*
X51813Y58513D01*
X51868Y58471D01*
X51932Y58445D01*
X52000Y58436D01*
X52068Y58445D01*
X52132Y58471D01*
X52187Y58513D01*
X52229Y58568D01*
X52255Y58632D01*
X52264Y58700D01*
X52255Y58768D01*
X52229Y58832D01*
X52187Y58887D01*
X52132Y58929D01*
X52068Y58955D01*
X52000Y58964D01*
D02*
G37*
G36*
X50400D02*
X50332Y58955D01*
X50268Y58929D01*
X50213Y58887D01*
X50171Y58832D01*
X50145Y58768D01*
X50136Y58700D01*
X50145Y58632D01*
X50171Y58568D01*
X50213Y58513D01*
X50268Y58471D01*
X50332Y58445D01*
X50400Y58436D01*
X50468Y58445D01*
X50532Y58471D01*
X50587Y58513D01*
X50629Y58568D01*
X50655Y58632D01*
X50664Y58700D01*
X50655Y58768D01*
X50629Y58832D01*
X50587Y58887D01*
X50532Y58929D01*
X50468Y58955D01*
X50400Y58964D01*
D02*
G37*
G36*
X41683Y58630D02*
X41615Y58621D01*
X41551Y58595D01*
X41496Y58553D01*
X41454Y58498D01*
X41428Y58435D01*
X41419Y58366D01*
X41428Y58298D01*
X41454Y58234D01*
X41496Y58179D01*
X41551Y58137D01*
X41615Y58111D01*
X41683Y58102D01*
X41751Y58111D01*
X41815Y58137D01*
X41870Y58179D01*
X41912Y58234D01*
X41938Y58298D01*
X41947Y58366D01*
X41938Y58435D01*
X41912Y58498D01*
X41870Y58553D01*
X41815Y58595D01*
X41751Y58621D01*
X41683Y58630D01*
D02*
G37*
G36*
X46878Y57570D02*
X46809Y57561D01*
X46745Y57534D01*
X46691Y57492D01*
X46649Y57438D01*
X46622Y57374D01*
X46613Y57306D01*
X46622Y57237D01*
X46649Y57173D01*
X46691Y57119D01*
X46745Y57077D01*
X46809Y57050D01*
X46878Y57041D01*
X46946Y57050D01*
X47010Y57077D01*
X47064Y57119D01*
X47106Y57173D01*
X47133Y57237D01*
X47142Y57306D01*
X47133Y57374D01*
X47106Y57438D01*
X47064Y57492D01*
X47010Y57534D01*
X46946Y57561D01*
X46878Y57570D01*
D02*
G37*
G36*
X39383Y56970D02*
X39314Y56961D01*
X39251Y56934D01*
X39196Y56892D01*
X39154Y56838D01*
X39127Y56774D01*
X39118Y56706D01*
X39127Y56637D01*
X39154Y56573D01*
X39196Y56519D01*
X39251Y56477D01*
X39314Y56450D01*
X39383Y56441D01*
X39451Y56450D01*
X39515Y56477D01*
X39570Y56519D01*
X39612Y56573D01*
X39638Y56637D01*
X39647Y56706D01*
X39638Y56774D01*
X39612Y56838D01*
X39570Y56892D01*
X39515Y56934D01*
X39451Y56961D01*
X39383Y56970D01*
D02*
G37*
G36*
X49163Y56121D02*
X49095Y56112D01*
X49031Y56085D01*
X48977Y56043D01*
X48935Y55988D01*
X48908Y55925D01*
X48899Y55856D01*
X48908Y55788D01*
X48935Y55724D01*
X48977Y55669D01*
X49031Y55627D01*
X49095Y55601D01*
X49163Y55592D01*
X49232Y55601D01*
X49296Y55627D01*
X49350Y55669D01*
X49392Y55724D01*
X49419Y55788D01*
X49428Y55856D01*
X49419Y55925D01*
X49392Y55988D01*
X49350Y56043D01*
X49296Y56085D01*
X49232Y56112D01*
X49163Y56121D01*
D02*
G37*
G36*
X38590Y56064D02*
X38521Y56055D01*
X38458Y56029D01*
X38403Y55987D01*
X38361Y55932D01*
X38335Y55868D01*
X38326Y55800D01*
X38335Y55732D01*
X38361Y55668D01*
X38403Y55613D01*
X38458Y55571D01*
X38521Y55545D01*
X38590Y55536D01*
X38658Y55545D01*
X38722Y55571D01*
X38777Y55613D01*
X38819Y55668D01*
X38845Y55732D01*
X38854Y55800D01*
X38845Y55868D01*
X38819Y55932D01*
X38777Y55987D01*
X38722Y56029D01*
X38658Y56055D01*
X38590Y56064D01*
D02*
G37*
G36*
X50500Y57164D02*
X50432Y57155D01*
X50368Y57129D01*
X50313Y57087D01*
X50271Y57032D01*
X50245Y56968D01*
X50236Y56900D01*
X50245Y56832D01*
X50271Y56768D01*
X50313Y56713D01*
X50368Y56671D01*
X50432Y56645D01*
X50500Y56636D01*
X50568Y56645D01*
X50632Y56671D01*
X50687Y56713D01*
X50729Y56768D01*
X50755Y56832D01*
X50764Y56900D01*
X50755Y56968D01*
X50729Y57032D01*
X50687Y57087D01*
X50632Y57129D01*
X50568Y57155D01*
X50500Y57164D01*
D02*
G37*
G36*
X43900Y57533D02*
X43832Y57524D01*
X43768Y57497D01*
X43713Y57455D01*
X43671Y57401D01*
X43645Y57337D01*
X43636Y57269D01*
X43645Y57200D01*
X43671Y57136D01*
X43713Y57082D01*
X43768Y57040D01*
X43832Y57013D01*
X43900Y57004D01*
X43968Y57013D01*
X44032Y57040D01*
X44087Y57082D01*
X44129Y57136D01*
X44155Y57200D01*
X44164Y57269D01*
X44155Y57337D01*
X44129Y57401D01*
X44087Y57455D01*
X44032Y57497D01*
X43968Y57524D01*
X43900Y57533D01*
D02*
G37*
G36*
X42168Y57464D02*
X42100Y57455D01*
X42036Y57429D01*
X41982Y57387D01*
X41940Y57332D01*
X41913Y57268D01*
X41904Y57200D01*
X41913Y57132D01*
X41940Y57068D01*
X41982Y57013D01*
X42036Y56971D01*
X42100Y56945D01*
X42168Y56936D01*
X42237Y56945D01*
X42301Y56971D01*
X42355Y57013D01*
X42397Y57068D01*
X42424Y57132D01*
X42433Y57200D01*
X42424Y57268D01*
X42397Y57332D01*
X42355Y57387D01*
X42301Y57429D01*
X42237Y57455D01*
X42168Y57464D01*
D02*
G37*
G36*
X51900Y57164D02*
X51832Y57155D01*
X51768Y57129D01*
X51713Y57087D01*
X51671Y57032D01*
X51645Y56968D01*
X51636Y56900D01*
X51645Y56832D01*
X51671Y56768D01*
X51713Y56713D01*
X51768Y56671D01*
X51832Y56645D01*
X51900Y56636D01*
X51968Y56645D01*
X52032Y56671D01*
X52087Y56713D01*
X52129Y56768D01*
X52155Y56832D01*
X52164Y56900D01*
X52155Y56968D01*
X52129Y57032D01*
X52087Y57087D01*
X52032Y57129D01*
X51968Y57155D01*
X51900Y57164D01*
D02*
G37*
G36*
X42717Y50756D02*
X42653Y50743D01*
X42600Y50707D01*
X42564Y50654D01*
X42551Y50591D01*
X42564Y50527D01*
X42600Y50474D01*
X42653Y50438D01*
X42717Y50425D01*
X42780Y50438D01*
X42833Y50474D01*
X42869Y50527D01*
X42882Y50591D01*
X42869Y50654D01*
X42833Y50707D01*
X42780Y50743D01*
X42717Y50756D01*
D02*
G37*
G36*
X41929D02*
X41866Y50743D01*
X41812Y50707D01*
X41777Y50654D01*
X41764Y50591D01*
X41777Y50527D01*
X41812Y50474D01*
X41866Y50438D01*
X41929Y50425D01*
X41992Y50438D01*
X42046Y50474D01*
X42082Y50527D01*
X42094Y50591D01*
X42082Y50654D01*
X42046Y50707D01*
X41992Y50743D01*
X41929Y50756D01*
D02*
G37*
G36*
X41535D02*
X41472Y50743D01*
X41419Y50707D01*
X41383Y50654D01*
X41370Y50591D01*
X41383Y50527D01*
X41419Y50474D01*
X41472Y50438D01*
X41535Y50425D01*
X41599Y50438D01*
X41652Y50474D01*
X41688Y50527D01*
X41701Y50591D01*
X41688Y50654D01*
X41652Y50707D01*
X41599Y50743D01*
X41535Y50756D01*
D02*
G37*
G36*
X43110D02*
X43047Y50743D01*
X42993Y50707D01*
X42958Y50654D01*
X42945Y50591D01*
X42958Y50527D01*
X42993Y50474D01*
X43047Y50438D01*
X43110Y50425D01*
X43173Y50438D01*
X43227Y50474D01*
X43263Y50527D01*
X43275Y50591D01*
X43263Y50654D01*
X43227Y50707D01*
X43173Y50743D01*
X43110Y50756D01*
D02*
G37*
G36*
X41929Y51149D02*
X41866Y51137D01*
X41812Y51101D01*
X41777Y51047D01*
X41764Y50984D01*
X41777Y50921D01*
X41812Y50867D01*
X41866Y50832D01*
X41929Y50819D01*
X41992Y50832D01*
X42046Y50867D01*
X42082Y50921D01*
X42094Y50984D01*
X42082Y51047D01*
X42046Y51101D01*
X41992Y51137D01*
X41929Y51149D01*
D02*
G37*
G36*
X41535D02*
X41472Y51137D01*
X41419Y51101D01*
X41383Y51047D01*
X41370Y50984D01*
X41383Y50921D01*
X41419Y50867D01*
X41472Y50832D01*
X41535Y50819D01*
X41599Y50832D01*
X41652Y50867D01*
X41688Y50921D01*
X41701Y50984D01*
X41688Y51047D01*
X41652Y51101D01*
X41599Y51137D01*
X41535Y51149D01*
D02*
G37*
G36*
X43504Y50756D02*
X43441Y50743D01*
X43387Y50707D01*
X43351Y50654D01*
X43339Y50591D01*
X43351Y50527D01*
X43387Y50474D01*
X43441Y50438D01*
X43504Y50425D01*
X43567Y50438D01*
X43621Y50474D01*
X43657Y50527D01*
X43669Y50591D01*
X43657Y50654D01*
X43621Y50707D01*
X43567Y50743D01*
X43504Y50756D01*
D02*
G37*
G36*
X41142D02*
X41079Y50743D01*
X41025Y50707D01*
X40989Y50654D01*
X40977Y50591D01*
X40989Y50527D01*
X41025Y50474D01*
X41079Y50438D01*
X41142Y50425D01*
X41205Y50438D01*
X41259Y50474D01*
X41294Y50527D01*
X41307Y50591D01*
X41294Y50654D01*
X41259Y50707D01*
X41205Y50743D01*
X41142Y50756D01*
D02*
G37*
G36*
X43110Y50362D02*
X43047Y50349D01*
X42993Y50314D01*
X42958Y50260D01*
X42945Y50197D01*
X42958Y50134D01*
X42993Y50080D01*
X43047Y50044D01*
X43110Y50032D01*
X43173Y50044D01*
X43227Y50080D01*
X43263Y50134D01*
X43275Y50197D01*
X43263Y50260D01*
X43227Y50314D01*
X43173Y50349D01*
X43110Y50362D01*
D02*
G37*
G36*
X42717D02*
X42653Y50349D01*
X42600Y50314D01*
X42564Y50260D01*
X42551Y50197D01*
X42564Y50134D01*
X42600Y50080D01*
X42653Y50044D01*
X42717Y50032D01*
X42780Y50044D01*
X42833Y50080D01*
X42869Y50134D01*
X42882Y50197D01*
X42869Y50260D01*
X42833Y50314D01*
X42780Y50349D01*
X42717Y50362D01*
D02*
G37*
G36*
X41929D02*
X41866Y50349D01*
X41812Y50314D01*
X41777Y50260D01*
X41764Y50197D01*
X41777Y50134D01*
X41812Y50080D01*
X41866Y50044D01*
X41929Y50032D01*
X41992Y50044D01*
X42046Y50080D01*
X42082Y50134D01*
X42094Y50197D01*
X42082Y50260D01*
X42046Y50314D01*
X41992Y50349D01*
X41929Y50362D01*
D02*
G37*
G36*
X43504D02*
X43441Y50349D01*
X43387Y50314D01*
X43351Y50260D01*
X43339Y50197D01*
X43351Y50134D01*
X43387Y50080D01*
X43441Y50044D01*
X43504Y50032D01*
X43567Y50044D01*
X43621Y50080D01*
X43657Y50134D01*
X43669Y50197D01*
X43657Y50260D01*
X43621Y50314D01*
X43567Y50349D01*
X43504Y50362D01*
D02*
G37*
G36*
X40354Y50756D02*
X40291Y50743D01*
X40238Y50707D01*
X40202Y50654D01*
X40189Y50591D01*
X40202Y50527D01*
X40238Y50474D01*
X40291Y50438D01*
X40354Y50425D01*
X40418Y50438D01*
X40471Y50474D01*
X40507Y50527D01*
X40519Y50591D01*
X40507Y50654D01*
X40471Y50707D01*
X40418Y50743D01*
X40354Y50756D01*
D02*
G37*
G36*
X45571Y50559D02*
X45508Y50546D01*
X45454Y50511D01*
X45418Y50457D01*
X45406Y50394D01*
X45418Y50330D01*
X45454Y50277D01*
X45508Y50241D01*
X45571Y50229D01*
X45634Y50241D01*
X45688Y50277D01*
X45723Y50330D01*
X45736Y50394D01*
X45723Y50457D01*
X45688Y50511D01*
X45634Y50546D01*
X45571Y50559D01*
D02*
G37*
G36*
X43898Y50362D02*
X43834Y50349D01*
X43781Y50314D01*
X43745Y50260D01*
X43732Y50197D01*
X43745Y50134D01*
X43781Y50080D01*
X43834Y50044D01*
X43898Y50032D01*
X43961Y50044D01*
X44014Y50080D01*
X44050Y50134D01*
X44063Y50197D01*
X44050Y50260D01*
X44014Y50314D01*
X43961Y50349D01*
X43898Y50362D01*
D02*
G37*
G36*
X41339Y52823D02*
X41275Y52810D01*
X41222Y52774D01*
X41186Y52721D01*
X41173Y52657D01*
X41186Y52594D01*
X41222Y52541D01*
X41275Y52505D01*
X41339Y52492D01*
X41402Y52505D01*
X41455Y52541D01*
X41491Y52594D01*
X41504Y52657D01*
X41491Y52721D01*
X41455Y52774D01*
X41402Y52810D01*
X41339Y52823D01*
D02*
G37*
G36*
X45472Y52724D02*
X45409Y52712D01*
X45356Y52676D01*
X45320Y52622D01*
X45307Y52559D01*
X45320Y52496D01*
X45356Y52442D01*
X45409Y52406D01*
X45472Y52394D01*
X45536Y52406D01*
X45589Y52442D01*
X45625Y52496D01*
X45638Y52559D01*
X45625Y52622D01*
X45589Y52676D01*
X45536Y52712D01*
X45472Y52724D01*
D02*
G37*
G36*
Y52331D02*
X45409Y52318D01*
X45356Y52282D01*
X45320Y52229D01*
X45307Y52165D01*
X45320Y52102D01*
X45356Y52049D01*
X45409Y52013D01*
X45472Y52000D01*
X45536Y52013D01*
X45589Y52049D01*
X45625Y52102D01*
X45638Y52165D01*
X45625Y52229D01*
X45589Y52282D01*
X45536Y52318D01*
X45472Y52331D01*
D02*
G37*
G36*
X43307Y52823D02*
X43244Y52810D01*
X43190Y52774D01*
X43154Y52721D01*
X43142Y52657D01*
X43154Y52594D01*
X43190Y52541D01*
X43244Y52505D01*
X43307Y52492D01*
X43370Y52505D01*
X43424Y52541D01*
X43460Y52594D01*
X43472Y52657D01*
X43460Y52721D01*
X43424Y52774D01*
X43370Y52810D01*
X43307Y52823D01*
D02*
G37*
G36*
X41400Y53450D02*
X41337Y53438D01*
X41283Y53402D01*
X41247Y53348D01*
X41235Y53285D01*
X41247Y53222D01*
X41283Y53168D01*
X41337Y53132D01*
X41400Y53120D01*
X41463Y53132D01*
X41517Y53168D01*
X41553Y53222D01*
X41565Y53285D01*
X41553Y53348D01*
X41517Y53402D01*
X41463Y53438D01*
X41400Y53450D01*
D02*
G37*
G36*
X39370Y52921D02*
X39307Y52909D01*
X39253Y52873D01*
X39217Y52819D01*
X39205Y52756D01*
X39217Y52693D01*
X39253Y52639D01*
X39307Y52603D01*
X39370Y52591D01*
X39433Y52603D01*
X39487Y52639D01*
X39523Y52693D01*
X39535Y52756D01*
X39523Y52819D01*
X39487Y52873D01*
X39433Y52909D01*
X39370Y52921D01*
D02*
G37*
G36*
X45079Y52823D02*
X45016Y52810D01*
X44962Y52774D01*
X44926Y52721D01*
X44914Y52657D01*
X44926Y52594D01*
X44962Y52541D01*
X45016Y52505D01*
X45079Y52492D01*
X45142Y52505D01*
X45196Y52541D01*
X45231Y52594D01*
X45244Y52657D01*
X45231Y52721D01*
X45196Y52774D01*
X45142Y52810D01*
X45079Y52823D01*
D02*
G37*
G36*
Y52331D02*
X45016Y52318D01*
X44962Y52282D01*
X44926Y52229D01*
X44914Y52165D01*
X44926Y52102D01*
X44962Y52049D01*
X45016Y52013D01*
X45079Y52000D01*
X45142Y52013D01*
X45196Y52049D01*
X45231Y52102D01*
X45244Y52165D01*
X45231Y52229D01*
X45196Y52282D01*
X45142Y52318D01*
X45079Y52331D01*
D02*
G37*
G36*
X46600Y51588D02*
X46537Y51575D01*
X46483Y51540D01*
X46447Y51486D01*
X46435Y51423D01*
X46447Y51360D01*
X46483Y51306D01*
X46537Y51270D01*
X46600Y51258D01*
X46663Y51270D01*
X46717Y51306D01*
X46753Y51360D01*
X46765Y51423D01*
X46753Y51486D01*
X46717Y51540D01*
X46663Y51575D01*
X46600Y51588D01*
D02*
G37*
G36*
X39961Y51543D02*
X39897Y51531D01*
X39844Y51495D01*
X39808Y51441D01*
X39795Y51378D01*
X39808Y51315D01*
X39844Y51261D01*
X39897Y51225D01*
X39961Y51213D01*
X40024Y51225D01*
X40077Y51261D01*
X40113Y51315D01*
X40126Y51378D01*
X40113Y51441D01*
X40077Y51495D01*
X40024Y51531D01*
X39961Y51543D01*
D02*
G37*
G36*
X42717Y51149D02*
X42653Y51137D01*
X42600Y51101D01*
X42564Y51047D01*
X42551Y50984D01*
X42564Y50921D01*
X42600Y50867D01*
X42653Y50832D01*
X42717Y50819D01*
X42780Y50832D01*
X42833Y50867D01*
X42869Y50921D01*
X42882Y50984D01*
X42869Y51047D01*
X42833Y51101D01*
X42780Y51137D01*
X42717Y51149D01*
D02*
G37*
G36*
X39000Y51865D02*
X38937Y51853D01*
X38883Y51817D01*
X38847Y51763D01*
X38835Y51700D01*
X38847Y51637D01*
X38883Y51583D01*
X38937Y51547D01*
X39000Y51535D01*
X39063Y51547D01*
X39117Y51583D01*
X39153Y51637D01*
X39165Y51700D01*
X39153Y51763D01*
X39117Y51817D01*
X39063Y51853D01*
X39000Y51865D01*
D02*
G37*
G36*
X44685Y51937D02*
X44622Y51924D01*
X44568Y51888D01*
X44532Y51835D01*
X44520Y51772D01*
X44532Y51708D01*
X44568Y51655D01*
X44622Y51619D01*
X44685Y51606D01*
X44748Y51619D01*
X44802Y51655D01*
X44838Y51708D01*
X44850Y51772D01*
X44838Y51835D01*
X44802Y51888D01*
X44748Y51924D01*
X44685Y51937D01*
D02*
G37*
G36*
X42717D02*
X42653Y51924D01*
X42600Y51888D01*
X42564Y51835D01*
X42551Y51772D01*
X42564Y51708D01*
X42600Y51655D01*
X42653Y51619D01*
X42717Y51606D01*
X42780Y51619D01*
X42833Y51655D01*
X42869Y51708D01*
X42882Y51772D01*
X42869Y51835D01*
X42833Y51888D01*
X42780Y51924D01*
X42717Y51937D01*
D02*
G37*
G36*
X39961D02*
X39897Y51924D01*
X39844Y51888D01*
X39808Y51835D01*
X39795Y51772D01*
X39808Y51708D01*
X39844Y51655D01*
X39897Y51619D01*
X39961Y51606D01*
X40024Y51619D01*
X40077Y51655D01*
X40113Y51708D01*
X40126Y51772D01*
X40113Y51835D01*
X40077Y51888D01*
X40024Y51924D01*
X39961Y51937D01*
D02*
G37*
%LPD*%
D29*
X43898Y48622D02*
X44094Y48819D01*
X51280Y48720D02*
Y48917D01*
X51181Y49016D02*
X51280Y48917D01*
X44685Y49016D02*
X51181D01*
X44488Y48819D02*
X44685Y49016D01*
X44094Y48819D02*
X44488D01*
D31*
X38583Y47047D02*
X38780Y46850D01*
X38583Y47047D02*
Y49705D01*
D36*
X82600Y33500D02*
Y32900D01*
X83000D01*
X83300Y33300D02*
X83500D01*
X83600Y33200D01*
Y32900D01*
X83300D01*
X83200Y33000D01*
X83300Y33100D01*
X83600D01*
X83800Y33300D02*
Y33000D01*
X83900Y32900D01*
X84199D01*
Y32800D01*
X84100Y32700D01*
X84000D01*
X84199Y32900D02*
Y33300D01*
X84699Y32900D02*
X84499D01*
X84399Y33000D01*
Y33200D01*
X84499Y33300D01*
X84699D01*
X84799Y33200D01*
Y33100D01*
X84399D01*
X84999Y33300D02*
Y32900D01*
Y33100D01*
X85099Y33200D01*
X85199Y33300D01*
X85299D01*
X86499Y32900D02*
Y33500D01*
X86199Y33200D01*
X86599D01*
D42*
X38583Y49705D02*
D03*
X38780Y46850D02*
D03*
X43898Y50984D02*
D03*
X44291Y51378D02*
D03*
X43898Y47835D02*
D03*
X44291D02*
D03*
X43898Y48622D02*
D03*
X51290Y48720D02*
D03*
X40748Y50984D02*
D03*
X40354Y51378D02*
D03*
X40748Y47835D02*
D03*
X40354D02*
D03*
D43*
X52215Y55217D02*
D03*
X51476Y55167D02*
D03*
X49768Y53951D02*
D03*
M02*
