%FSLAX24Y24*%
%MOIN*%
G70*
G01*
G75*
G04 Layer_Physical_Order=6*
G04 Layer_Color=16711680*
%ADD10O,0.1083X0.0394*%
%ADD11R,0.1083X0.0394*%
%ADD12R,0.0394X0.0433*%
%ADD13C,0.0177*%
%ADD14R,0.0748X0.0197*%
%ADD15R,0.0197X0.0748*%
%ADD16R,0.0177X0.0669*%
%ADD17R,0.0177X0.0669*%
%ADD18R,0.0500X0.1449*%
%ADD19R,0.0787X0.0551*%
%ADD20R,0.0945X0.0354*%
%ADD21R,0.0433X0.0394*%
%ADD22R,0.1024X0.0945*%
%ADD23R,0.0630X0.0709*%
%ADD24R,0.0945X0.1024*%
%ADD25R,0.1000X0.1400*%
%ADD26R,0.0300X0.0600*%
%ADD27R,0.0709X0.0630*%
%ADD28R,0.0630X0.0512*%
%ADD29C,0.0060*%
%ADD30C,0.0080*%
%ADD31C,0.0120*%
%ADD32C,0.0200*%
%ADD33C,0.0110*%
%ADD34C,0.0160*%
%ADD35C,0.0300*%
%ADD36C,0.0100*%
%ADD37C,0.0472*%
%ADD38R,0.0591X0.0591*%
%ADD39C,0.0591*%
%ADD40C,0.1600*%
%ADD41C,0.0669*%
%ADD42C,0.0200*%
%ADD43C,0.0400*%
%ADD44C,0.0350*%
%ADD45R,0.0276X0.0354*%
%ADD46R,0.0354X0.0276*%
%ADD47R,0.0276X0.0787*%
%ADD48R,0.0512X0.1339*%
G36*
X46850Y57566D02*
X46809Y57561D01*
X46745Y57534D01*
X46691Y57492D01*
X46649Y57438D01*
X46622Y57374D01*
X46613Y57306D01*
X46622Y57237D01*
X46649Y57173D01*
X46691Y57119D01*
X46745Y57077D01*
X46809Y57050D01*
X46850Y57045D01*
Y44882D01*
X38681D01*
Y46665D01*
X38720Y46697D01*
X38780Y46685D01*
X38843Y46698D01*
X38896Y46734D01*
X38932Y46787D01*
X38945Y46850D01*
X38932Y46914D01*
X38896Y46967D01*
X38843Y47003D01*
X38780Y47016D01*
X38720Y47004D01*
X38681Y47035D01*
Y47555D01*
X38729Y47569D01*
X38761Y47521D01*
X38815Y47485D01*
X38878Y47473D01*
X38941Y47485D01*
X38995Y47521D01*
X39031Y47575D01*
X39043Y47638D01*
X39031Y47701D01*
X38995Y47755D01*
X38941Y47790D01*
X38878Y47803D01*
X38815Y47790D01*
X38761Y47755D01*
X38729Y47706D01*
X38681Y47721D01*
Y49576D01*
X38699Y49588D01*
X38735Y49642D01*
X38748Y49705D01*
X38735Y49768D01*
X38699Y49822D01*
X38681Y49834D01*
Y54403D01*
X38694Y54413D01*
X38736Y54468D01*
X38763Y54532D01*
X38772Y54600D01*
X38763Y54668D01*
X38736Y54732D01*
X38694Y54787D01*
X38681Y54797D01*
Y55554D01*
X38722Y55571D01*
X38777Y55613D01*
X38819Y55668D01*
X38845Y55732D01*
X38854Y55800D01*
X38845Y55868D01*
X38819Y55932D01*
X38777Y55987D01*
X38722Y56029D01*
X38681Y56046D01*
Y57337D01*
X38682Y57340D01*
X38682Y57340D01*
X38682Y57340D01*
X38682Y57340D01*
X38686Y57341D01*
X38688Y57342D01*
X38723Y57354D01*
X38725Y57354D01*
X38729Y57356D01*
X38729D01*
Y57356D01*
X38729Y57356D01*
D01*
X38729Y57356D01*
Y57356D01*
X38731Y57354D01*
X38740Y57343D01*
X38747Y57338D01*
X38747Y57338D01*
X38788Y57306D01*
X38788Y57306D01*
X38795Y57301D01*
X38859Y57274D01*
X38867Y57273D01*
X38867Y57273D01*
X38919Y57266D01*
X38919D01*
X38927Y57265D01*
X38935Y57266D01*
X38935D01*
X38945Y57268D01*
X38945D01*
X38996Y57274D01*
X39003Y57277D01*
X39003D01*
X39052Y57297D01*
X39052Y57297D01*
X39059Y57301D01*
X39100Y57332D01*
X39107Y57338D01*
X39107Y57338D01*
X39114Y57343D01*
X39156Y57397D01*
X39182Y57461D01*
X39184Y57469D01*
X39184Y57469D01*
X39190Y57521D01*
D01*
D01*
D01*
D01*
D01*
X39190D01*
D01*
D01*
D01*
D01*
D01*
D01*
D01*
Y57521D01*
D01*
D01*
X39190D01*
D01*
D01*
D01*
D01*
D01*
D01*
D01*
D01*
D01*
Y57521D01*
D01*
D01*
D01*
D01*
D01*
Y57521D01*
Y57521D01*
Y57521D01*
D01*
Y57521D01*
D01*
D01*
D01*
D01*
Y57521D01*
X39191Y57530D01*
X39190Y57538D01*
X39190D01*
Y57538D01*
Y57538D01*
D01*
X39190Y57538D01*
D01*
D01*
D01*
D01*
D01*
D01*
D01*
X39189Y57545D01*
D01*
D01*
D01*
D01*
X39189D01*
D01*
D01*
D01*
D01*
D01*
X39189D01*
Y57545D01*
D01*
Y57545D01*
D01*
D01*
D01*
D01*
D01*
D01*
X39189Y57545D01*
X39189D01*
X39189D01*
D01*
D01*
D01*
D01*
D01*
D01*
Y57545D01*
D01*
D01*
X39189D01*
D01*
D01*
D01*
D01*
X39188Y57554D01*
X39188Y57554D01*
D01*
D01*
D01*
X39188Y57555D01*
X39186Y57569D01*
X39186Y57570D01*
X39186Y57575D01*
X39182Y57598D01*
X39179Y57606D01*
X39179Y57606D01*
X39159Y57654D01*
X39159Y57654D01*
X39156Y57662D01*
X39151Y57668D01*
X39151Y57668D01*
D01*
D01*
D01*
D01*
X39151Y57668D01*
D01*
D01*
Y57668D01*
D01*
X39151D01*
D01*
X39151D01*
D01*
D01*
X39141Y57681D01*
X39114Y57716D01*
X39076Y57746D01*
X39066Y57753D01*
X39066D01*
X39059Y57758D01*
X38996Y57785D01*
X38987Y57786D01*
X38987Y57786D01*
X38935Y57793D01*
X38935D01*
X38927Y57794D01*
X38919Y57793D01*
X38919D01*
X38911Y57792D01*
X38859Y57785D01*
X38843Y57778D01*
X38827Y57772D01*
X38803Y57762D01*
X38803Y57762D01*
X38795Y57758D01*
X38768Y57737D01*
X38747Y57721D01*
D01*
X38740Y57716D01*
X38735Y57710D01*
X38735D01*
X38731Y57705D01*
X38729Y57703D01*
X38729Y57703D01*
X38729Y57703D01*
D01*
X38729Y57703D01*
X38725Y57705D01*
X38723Y57705D01*
X38688Y57717D01*
X38686Y57718D01*
X38682Y57719D01*
Y57719D01*
X38681Y57722D01*
X38681Y57722D01*
Y59443D01*
X38681Y59443D01*
X38682Y59443D01*
X38682Y59445D01*
Y59445D01*
X38682Y59445D01*
X38683Y59447D01*
X38687Y59448D01*
X38687Y59449D01*
X38687D01*
X46850D01*
Y57566D01*
D02*
G37*
G36*
X39469Y59512D02*
X38687D01*
X38681Y59511D01*
X38675D01*
X38670Y59510D01*
X38670D01*
X38664Y59507D01*
X38663Y59507D01*
X38662Y59507D01*
X38647Y59500D01*
X38630Y59483D01*
D01*
X38630Y59483D01*
X38624Y59470D01*
X38623Y59468D01*
X38623Y59467D01*
X38623Y59466D01*
X38620Y59460D01*
X38619Y59455D01*
Y59449D01*
X38618Y59443D01*
Y57722D01*
X38619Y57717D01*
X38619Y57715D01*
X38619Y57715D01*
X38619Y57715D01*
Y57715D01*
X38620Y57711D01*
X38620Y57705D01*
X38621Y57703D01*
X38622Y57700D01*
X38623Y57698D01*
X38624Y57696D01*
X38625Y57691D01*
X38625Y57691D01*
X38625Y57691D01*
X38629Y57686D01*
X38632Y57681D01*
X38636Y57677D01*
X38640Y57671D01*
X38640Y57671D01*
X38640Y57671D01*
X38645Y57669D01*
X38646Y57668D01*
X38650Y57665D01*
X38655Y57663D01*
X38661Y57659D01*
X38661Y57659D01*
X38661Y57659D01*
X38709Y57643D01*
X38709Y57643D01*
X38709D01*
X38709Y57643D01*
X38716Y57642D01*
X38721Y57640D01*
X38726Y57641D01*
X38733Y57640D01*
X38733Y57640D01*
X38733D01*
X38740Y57642D01*
X38746Y57642D01*
X38751Y57644D01*
X38757Y57646D01*
X38757Y57646D01*
X38757Y57646D01*
X38761Y57649D01*
X38763Y57650D01*
X38765Y57651D01*
X38768Y57653D01*
X38770Y57655D01*
X38774Y57659D01*
X38777Y57661D01*
X38777Y57661D01*
X38778Y57663D01*
X38781Y57666D01*
X38785Y57671D01*
X38806Y57687D01*
X38827Y57703D01*
D01*
Y57703D01*
D01*
X38827D01*
D01*
D01*
D01*
D01*
X38827D01*
X38827Y57703D01*
D01*
D01*
X38827D01*
Y57703D01*
D01*
D01*
D01*
D01*
Y57703D01*
Y57703D01*
Y57703D01*
X38851Y57713D01*
X38875Y57723D01*
X38918Y57729D01*
X38927Y57730D01*
X38979Y57723D01*
X39027Y57703D01*
D01*
X39027Y57703D01*
X39048Y57687D01*
X39069Y57671D01*
X39101Y57630D01*
X39121Y57581D01*
X39127Y57536D01*
X39128Y57530D01*
Y57530D01*
D01*
X39121Y57478D01*
X39101Y57429D01*
X39069Y57388D01*
X39036Y57363D01*
X39027Y57356D01*
X39027D01*
X38979Y57336D01*
X38979D01*
X38936Y57330D01*
X38927Y57329D01*
D01*
D01*
X38927D01*
X38927Y57329D01*
X38927Y57329D01*
X38927Y57329D01*
X38927D01*
D01*
X38875Y57336D01*
X38827Y57356D01*
Y57356D01*
X38827D01*
D01*
D01*
D01*
D01*
D01*
D01*
D01*
D01*
Y57356D01*
X38827D01*
D01*
D01*
D01*
D01*
D01*
X38827D01*
Y57356D01*
D01*
X38827D01*
D01*
D01*
Y57356D01*
D01*
D01*
X38827D01*
D01*
X38785Y57388D01*
D01*
X38785D01*
D01*
D01*
Y57388D01*
D01*
D01*
D01*
D01*
D01*
D01*
D01*
D01*
D01*
D01*
D01*
D01*
D01*
D01*
Y57388D01*
Y57388D01*
Y57388D01*
X38785D01*
D01*
D01*
D01*
D01*
D01*
D01*
D01*
D01*
D01*
D01*
D01*
D01*
X38785Y57388D01*
Y57388D01*
D01*
X38785D01*
D01*
D01*
D01*
D01*
X38785D01*
D01*
X38781Y57393D01*
X38778Y57396D01*
X38777Y57398D01*
X38777Y57398D01*
X38777Y57398D01*
X38777Y57398D01*
X38774Y57400D01*
X38770Y57405D01*
X38768Y57406D01*
X38765Y57408D01*
X38763Y57409D01*
X38761Y57410D01*
X38757Y57413D01*
X38757Y57413D01*
X38757Y57413D01*
X38750Y57415D01*
X38746Y57417D01*
X38740Y57417D01*
X38733Y57419D01*
X38726Y57418D01*
X38721Y57419D01*
X38716Y57417D01*
X38709Y57416D01*
X38709Y57416D01*
X38709D01*
X38661Y57400D01*
X38661D01*
X38661Y57400D01*
X38661Y57400D01*
X38655Y57396D01*
X38650Y57395D01*
X38646Y57391D01*
X38640Y57388D01*
X38640Y57388D01*
X38640Y57388D01*
X38636Y57382D01*
X38632Y57378D01*
X38629Y57373D01*
X38625Y57368D01*
X38625Y57368D01*
X38625Y57368D01*
X38624Y57363D01*
X38623Y57362D01*
X38622Y57359D01*
X38621Y57356D01*
X38620Y57354D01*
X38620Y57348D01*
X38619Y57344D01*
X38619Y57344D01*
X38619Y57342D01*
X38618Y57337D01*
Y56089D01*
X38590Y56064D01*
X38521Y56055D01*
X38458Y56029D01*
X38403Y55987D01*
X38371Y55945D01*
X38178D01*
Y56000D01*
X37701D01*
X37701Y56000D01*
D01*
D01*
X37701Y56000D01*
X37699Y56000D01*
X37683D01*
X37666D01*
X37664Y56000D01*
X37664Y56000D01*
Y56000D01*
X37187D01*
Y55600D01*
X37203D01*
Y55516D01*
X37214Y55461D01*
X37246Y55414D01*
X37292Y55368D01*
X37285Y55315D01*
X37294Y55247D01*
X37320Y55183D01*
X37362Y55128D01*
X37417Y55086D01*
X37481Y55060D01*
X37549Y55051D01*
X37618Y55060D01*
X37681Y55086D01*
X37736Y55128D01*
X37778Y55183D01*
X37804Y55247D01*
X37813Y55315D01*
X37804Y55383D01*
X37778Y55447D01*
X37736Y55502D01*
X37681Y55544D01*
X37618Y55570D01*
X37549Y55579D01*
X37570Y55600D01*
X37666D01*
Y55600D01*
X37699D01*
X37701Y55600D01*
Y55600D01*
X37701D01*
X37701D01*
Y55600D01*
D01*
D01*
D01*
X38178D01*
Y55655D01*
X38371D01*
X38403Y55613D01*
X38458Y55571D01*
X38521Y55545D01*
X38590Y55536D01*
X38618Y55511D01*
Y54883D01*
X38576Y54855D01*
X38576Y54855D01*
X38507Y54864D01*
X38439Y54855D01*
X38375Y54829D01*
X38321Y54787D01*
X38279Y54732D01*
X38252Y54668D01*
X38243Y54600D01*
X38252Y54532D01*
X38279Y54468D01*
X38321Y54413D01*
X38375Y54371D01*
X38439Y54345D01*
X38507Y54336D01*
X38576Y54345D01*
X38576Y54345D01*
X38618Y54317D01*
Y53642D01*
X38484D01*
Y49834D01*
X38466Y49822D01*
X38430Y49768D01*
X38417Y49705D01*
X38430Y49642D01*
X38466Y49588D01*
X38484Y49576D01*
Y47244D01*
X36500D01*
X36486Y47292D01*
X36534Y47324D01*
X36570Y47378D01*
X36583Y47441D01*
X36570Y47504D01*
X36534Y47558D01*
X36481Y47594D01*
X36417Y47606D01*
X36354Y47594D01*
X36301Y47558D01*
X36265Y47504D01*
X36252Y47441D01*
X36265Y47378D01*
X36301Y47324D01*
X36349Y47292D01*
X36334Y47244D01*
X25591D01*
Y60236D01*
X39469D01*
Y59512D01*
D02*
G37*
%LPC*%
G36*
X43898Y49181D02*
X43834Y49168D01*
X43781Y49133D01*
X43745Y49079D01*
X43732Y49016D01*
X43745Y48953D01*
X43781Y48899D01*
X43834Y48863D01*
X43898Y48851D01*
X43961Y48863D01*
X44014Y48899D01*
X44050Y48953D01*
X44063Y49016D01*
X44050Y49079D01*
X44014Y49133D01*
X43961Y49168D01*
X43898Y49181D01*
D02*
G37*
G36*
X44291D02*
X44228Y49168D01*
X44175Y49133D01*
X44139Y49079D01*
X44126Y49016D01*
X44139Y48953D01*
X44175Y48899D01*
X44228Y48863D01*
X44291Y48851D01*
X44355Y48863D01*
X44408Y48899D01*
X44444Y48953D01*
X44457Y49016D01*
X44444Y49079D01*
X44408Y49133D01*
X44355Y49168D01*
X44291Y49181D01*
D02*
G37*
G36*
X39083Y49216D02*
X38894D01*
Y49066D01*
X39083D01*
Y49216D01*
D02*
G37*
G36*
X40354Y49575D02*
X40291Y49562D01*
X40238Y49526D01*
X40202Y49473D01*
X40191Y49418D01*
X40164Y49409D01*
X40121Y49435D01*
X40113Y49473D01*
X40077Y49526D01*
X40024Y49562D01*
X39961Y49575D01*
X39897Y49562D01*
X39844Y49526D01*
X39808Y49473D01*
X39795Y49409D01*
X39808Y49346D01*
X39844Y49293D01*
X39888Y49263D01*
X39887Y49260D01*
X39887D01*
X39887Y49260D01*
D01*
X39886Y49260D01*
X39874Y49219D01*
D01*
D01*
X39873Y49216D01*
X39691D01*
Y49304D01*
X39720Y49346D01*
X39732Y49409D01*
X39720Y49473D01*
X39684Y49526D01*
X39630Y49562D01*
X39567Y49575D01*
X39504Y49562D01*
X39450Y49526D01*
X39414Y49473D01*
X39402Y49409D01*
X39414Y49346D01*
X39443Y49304D01*
Y49251D01*
X39407Y49216D01*
X39406D01*
X39389D01*
X39372D01*
X39371Y49216D01*
Y49216D01*
Y49216D01*
D01*
D01*
D01*
X39183D01*
Y49016D01*
Y48816D01*
X39372D01*
Y48816D01*
X39406D01*
X39408Y48816D01*
Y48816D01*
X39408D01*
D01*
D01*
X39408Y48816D01*
D01*
X39884D01*
Y49212D01*
X39884D01*
Y49216D01*
D01*
D01*
X39884D01*
Y49216D01*
Y49216D01*
X39890Y49235D01*
X39919Y49252D01*
X39947Y49247D01*
X39997Y49197D01*
Y48697D01*
X40515D01*
Y49254D01*
X40499D01*
X40475Y49298D01*
X40507Y49346D01*
X40519Y49409D01*
X40507Y49473D01*
X40471Y49526D01*
X40418Y49562D01*
X40354Y49575D01*
D02*
G37*
G36*
X46457Y49870D02*
X46393Y49857D01*
X46340Y49822D01*
X46304Y49768D01*
X46292Y49705D01*
X46304Y49642D01*
X46340Y49588D01*
X46393Y49552D01*
X46457Y49540D01*
X46520Y49552D01*
X46573Y49588D01*
X46609Y49642D01*
X46622Y49705D01*
X46609Y49768D01*
X46573Y49822D01*
X46520Y49857D01*
X46457Y49870D01*
D02*
G37*
G36*
X45141Y50614D02*
X44623D01*
Y50057D01*
X44697D01*
X44717Y50011D01*
X44672Y49966D01*
X44622Y49956D01*
X44568Y49920D01*
X44532Y49866D01*
X44520Y49803D01*
X44532Y49740D01*
X44568Y49686D01*
X44622Y49651D01*
X44677Y49640D01*
X44685Y49612D01*
X44659Y49570D01*
X44622Y49562D01*
X44568Y49526D01*
X44532Y49473D01*
X44520Y49409D01*
X44532Y49346D01*
X44568Y49293D01*
X44622Y49257D01*
X44685Y49244D01*
X44748Y49257D01*
X44802Y49293D01*
X44831Y49336D01*
X44879Y49322D01*
Y49313D01*
D01*
D01*
X44879D01*
Y49124D01*
X45279D01*
Y49311D01*
X45279Y49311D01*
D01*
D01*
D01*
D01*
D01*
D01*
D01*
D01*
X45279Y49313D01*
Y49321D01*
Y49330D01*
Y49335D01*
Y49347D01*
X45279Y49348D01*
X45279Y49349D01*
D01*
X45279D01*
D01*
D01*
D01*
X45279Y49349D01*
Y49825D01*
X44948D01*
X44929Y49871D01*
X44970Y49912D01*
X44997Y49952D01*
X45006Y50000D01*
Y50057D01*
X45141D01*
Y50614D01*
D02*
G37*
G36*
X35659Y50261D02*
X35141D01*
Y49704D01*
X35276D01*
Y49580D01*
X35247Y49538D01*
X35235Y49475D01*
X35247Y49412D01*
X35283Y49358D01*
X35337Y49322D01*
X35400Y49310D01*
X35463Y49322D01*
X35517Y49358D01*
X35553Y49412D01*
X35565Y49475D01*
X35553Y49538D01*
X35524Y49580D01*
Y49704D01*
X35659D01*
Y50261D01*
D02*
G37*
G36*
X43898Y48787D02*
X43834Y48775D01*
X43781Y48739D01*
X43745Y48685D01*
X43732Y48622D01*
X43745Y48559D01*
X43781Y48505D01*
X43834Y48469D01*
X43898Y48457D01*
X43961Y48469D01*
X44014Y48505D01*
X44050Y48559D01*
X44063Y48622D01*
X44050Y48685D01*
X44014Y48739D01*
X43961Y48775D01*
X43898Y48787D01*
D02*
G37*
G36*
X44685D02*
X44622Y48775D01*
X44568Y48739D01*
X44532Y48685D01*
X44520Y48622D01*
X44532Y48559D01*
X44568Y48505D01*
X44622Y48469D01*
X44685Y48457D01*
X44748Y48469D01*
X44802Y48505D01*
X44838Y48559D01*
X44850Y48622D01*
X44838Y48685D01*
X44802Y48739D01*
X44748Y48775D01*
X44685Y48787D01*
D02*
G37*
G36*
X43110D02*
X43047Y48775D01*
X42993Y48739D01*
X42958Y48685D01*
X42945Y48622D01*
X42958Y48559D01*
X42993Y48505D01*
X43047Y48469D01*
X43110Y48457D01*
X43173Y48469D01*
X43227Y48505D01*
X43263Y48559D01*
X43275Y48622D01*
X43263Y48685D01*
X43227Y48739D01*
X43173Y48775D01*
X43110Y48787D01*
D02*
G37*
G36*
X43504D02*
X43441Y48775D01*
X43387Y48739D01*
X43351Y48685D01*
X43339Y48622D01*
X43351Y48559D01*
X43387Y48505D01*
X43441Y48469D01*
X43504Y48457D01*
X43567Y48469D01*
X43621Y48505D01*
X43657Y48559D01*
X43669Y48622D01*
X43657Y48685D01*
X43621Y48739D01*
X43567Y48775D01*
X43504Y48787D01*
D02*
G37*
G36*
X29000Y48823D02*
X28937Y48810D01*
X28883Y48774D01*
X28847Y48721D01*
X28835Y48657D01*
X28847Y48594D01*
X28883Y48541D01*
X28937Y48505D01*
X29000Y48492D01*
X29063Y48505D01*
X29117Y48541D01*
X29153Y48594D01*
X29165Y48657D01*
X29153Y48721D01*
X29117Y48774D01*
X29063Y48810D01*
X29000Y48823D01*
D02*
G37*
G36*
X45029Y49024D02*
X44879D01*
Y48835D01*
X45029D01*
Y49024D01*
D02*
G37*
G36*
X45279D02*
X45129D01*
Y48835D01*
X45279D01*
Y49024D01*
D02*
G37*
G36*
X34547Y48886D02*
X34484Y48873D01*
X34430Y48837D01*
X34395Y48784D01*
X34382Y48720D01*
X34395Y48657D01*
X34430Y48604D01*
X34484Y48568D01*
X34547Y48555D01*
X34610Y48568D01*
X34664Y48604D01*
X34700Y48657D01*
X34712Y48720D01*
X34700Y48784D01*
X34664Y48837D01*
X34610Y48873D01*
X34547Y48886D01*
D02*
G37*
G36*
X39083Y48966D02*
X38894D01*
Y48816D01*
X39083D01*
Y48966D01*
D02*
G37*
G36*
X41535Y49968D02*
X41472Y49956D01*
X41419Y49920D01*
X41383Y49866D01*
X41370Y49803D01*
X41383Y49740D01*
X41419Y49686D01*
X41472Y49651D01*
X41477Y49650D01*
X41472Y49600D01*
X41336D01*
X41336Y49600D01*
D01*
D01*
X41336Y49600D01*
D01*
X41334Y49600D01*
X41317D01*
X41301D01*
X41299Y49600D01*
Y49600D01*
Y49600D01*
D01*
D01*
D01*
X41205D01*
X41200Y49650D01*
X41205Y49651D01*
X41259Y49686D01*
X41294Y49740D01*
X41307Y49803D01*
X41294Y49866D01*
X41259Y49920D01*
X41205Y49956D01*
X41142Y49968D01*
X41079Y49956D01*
X41025Y49920D01*
X40989Y49866D01*
X40977Y49803D01*
X40989Y49740D01*
X41025Y49686D01*
X41079Y49651D01*
X41084Y49650D01*
X41079Y49600D01*
X40822D01*
Y49206D01*
X40784Y49174D01*
X40748Y49181D01*
X40685Y49168D01*
X40631Y49133D01*
X40595Y49079D01*
X40583Y49016D01*
X40595Y48953D01*
X40631Y48899D01*
X40685Y48863D01*
X40748Y48851D01*
X40811Y48863D01*
X40865Y48899D01*
X40901Y48953D01*
X40913Y49015D01*
X40940Y49021D01*
X40981Y48993D01*
X40989Y48953D01*
X41025Y48899D01*
X41079Y48863D01*
X41142Y48851D01*
X41205Y48863D01*
X41259Y48899D01*
X41294Y48953D01*
X41307Y49016D01*
X41294Y49079D01*
X41259Y49133D01*
X41205Y49168D01*
X41186Y49172D01*
Y49200D01*
X41301D01*
Y49200D01*
X41334D01*
X41336Y49200D01*
Y49200D01*
X41336D01*
D01*
D01*
X41336Y49200D01*
D01*
X41434D01*
X41448Y49152D01*
X41419Y49133D01*
X41383Y49079D01*
X41370Y49016D01*
X41383Y48953D01*
X41419Y48899D01*
X41472Y48863D01*
X41535Y48851D01*
X41599Y48863D01*
X41652Y48899D01*
X41688Y48953D01*
X41701Y49016D01*
X41688Y49079D01*
X41652Y49133D01*
X41623Y49152D01*
X41637Y49200D01*
X41783D01*
X41805Y49178D01*
Y49121D01*
X41777Y49079D01*
X41764Y49016D01*
X41777Y48953D01*
X41812Y48899D01*
X41866Y48863D01*
X41929Y48851D01*
X41992Y48863D01*
X42046Y48899D01*
X42082Y48953D01*
X42094Y49016D01*
X42082Y49079D01*
X42054Y49121D01*
Y49230D01*
X42044Y49277D01*
X42017Y49317D01*
X41847Y49488D01*
X41813Y49511D01*
Y49600D01*
X41599D01*
X41594Y49650D01*
X41599Y49651D01*
X41652Y49686D01*
X41688Y49740D01*
X41701Y49803D01*
X41688Y49866D01*
X41652Y49920D01*
X41599Y49956D01*
X41535Y49968D01*
D02*
G37*
G36*
X35236Y51149D02*
X35173Y51137D01*
X35119Y51101D01*
X35084Y51047D01*
X35071Y50984D01*
X35084Y50921D01*
X35119Y50867D01*
X35141Y50853D01*
Y50374D01*
X35659D01*
Y50931D01*
X35466D01*
X35399Y50998D01*
X35389Y51047D01*
X35353Y51101D01*
X35299Y51137D01*
X35236Y51149D01*
D02*
G37*
G36*
X40101Y50948D02*
X39544D01*
Y50430D01*
X40101D01*
Y50565D01*
X40194D01*
X40202Y50527D01*
X40238Y50474D01*
X40291Y50438D01*
X40354Y50425D01*
X40418Y50438D01*
X40471Y50474D01*
X40507Y50527D01*
X40519Y50591D01*
X40507Y50654D01*
X40471Y50707D01*
X40418Y50743D01*
X40368Y50753D01*
X40344Y50777D01*
X40304Y50804D01*
X40256Y50813D01*
X40101D01*
Y50948D01*
D02*
G37*
G36*
X43110Y50362D02*
X43047Y50349D01*
X42993Y50314D01*
X42958Y50260D01*
X42945Y50197D01*
X42958Y50134D01*
X42993Y50080D01*
X43047Y50044D01*
X43110Y50032D01*
X43173Y50044D01*
X43227Y50080D01*
X43263Y50134D01*
X43275Y50197D01*
X43263Y50260D01*
X43227Y50314D01*
X43173Y50349D01*
X43110Y50362D01*
D02*
G37*
G36*
X27461Y50460D02*
X27397Y50448D01*
X27344Y50412D01*
X27308Y50358D01*
X27295Y50295D01*
X27308Y50232D01*
X27344Y50178D01*
X27397Y50143D01*
X27461Y50130D01*
X27524Y50143D01*
X27577Y50178D01*
X27613Y50232D01*
X27626Y50295D01*
X27613Y50358D01*
X27577Y50412D01*
X27524Y50448D01*
X27461Y50460D01*
D02*
G37*
G36*
X41929Y50756D02*
X41866Y50743D01*
X41812Y50707D01*
X41777Y50654D01*
X41764Y50591D01*
X41777Y50527D01*
X41812Y50474D01*
X41866Y50438D01*
X41929Y50425D01*
X41992Y50438D01*
X42046Y50474D01*
X42082Y50527D01*
X42094Y50591D01*
X42082Y50654D01*
X42046Y50707D01*
X41992Y50743D01*
X41929Y50756D01*
D02*
G37*
G36*
X42717D02*
X42653Y50743D01*
X42600Y50707D01*
X42564Y50654D01*
X42551Y50591D01*
X42564Y50527D01*
X42600Y50474D01*
X42653Y50438D01*
X42717Y50425D01*
X42780Y50438D01*
X42833Y50474D01*
X42869Y50527D01*
X42882Y50591D01*
X42869Y50654D01*
X42833Y50707D01*
X42780Y50743D01*
X42717Y50756D01*
D02*
G37*
G36*
X41142D02*
X41079Y50743D01*
X41025Y50707D01*
X40989Y50654D01*
X40977Y50591D01*
X40989Y50527D01*
X41025Y50474D01*
X41079Y50438D01*
X41142Y50425D01*
X41205Y50438D01*
X41259Y50474D01*
X41294Y50527D01*
X41307Y50591D01*
X41294Y50654D01*
X41259Y50707D01*
X41205Y50743D01*
X41142Y50756D01*
D02*
G37*
G36*
X41535D02*
X41472Y50743D01*
X41419Y50707D01*
X41383Y50654D01*
X41370Y50591D01*
X41383Y50527D01*
X41419Y50474D01*
X41472Y50438D01*
X41535Y50425D01*
X41599Y50438D01*
X41652Y50474D01*
X41688Y50527D01*
X41701Y50591D01*
X41688Y50654D01*
X41652Y50707D01*
X41599Y50743D01*
X41535Y50756D01*
D02*
G37*
G36*
X41929Y49968D02*
X41866Y49956D01*
X41812Y49920D01*
X41777Y49866D01*
X41764Y49803D01*
X41777Y49740D01*
X41812Y49686D01*
X41866Y49651D01*
X41929Y49638D01*
X41992Y49651D01*
X42046Y49686D01*
X42082Y49740D01*
X42094Y49803D01*
X42082Y49866D01*
X42046Y49920D01*
X41992Y49956D01*
X41929Y49968D01*
D02*
G37*
G36*
X27362Y50067D02*
X27299Y50054D01*
X27245Y50018D01*
X27210Y49965D01*
X27197Y49902D01*
X27210Y49838D01*
X27245Y49785D01*
X27299Y49749D01*
X27362Y49736D01*
X27425Y49749D01*
X27479Y49785D01*
X27515Y49838D01*
X27527Y49902D01*
X27515Y49965D01*
X27479Y50018D01*
X27425Y50054D01*
X27362Y50067D01*
D02*
G37*
G36*
X43110Y49968D02*
X43047Y49956D01*
X42993Y49920D01*
X42958Y49866D01*
X42945Y49803D01*
X42958Y49740D01*
X42993Y49686D01*
X43037Y49657D01*
X43023Y49609D01*
X42824D01*
X42798Y49628D01*
X42791Y49653D01*
X42791Y49654D01*
D01*
X42790Y49654D01*
X42790D01*
X42790Y49657D01*
X42833Y49686D01*
X42869Y49740D01*
X42882Y49803D01*
X42869Y49866D01*
X42833Y49920D01*
X42780Y49956D01*
X42717Y49968D01*
X42653Y49956D01*
X42600Y49920D01*
X42564Y49866D01*
X42551Y49803D01*
X42564Y49740D01*
X42600Y49686D01*
X42653Y49651D01*
X42717Y49638D01*
X42758Y49646D01*
X42787Y49629D01*
X42791Y49615D01*
X42793Y49609D01*
X42793D01*
D01*
D01*
D01*
Y49606D01*
X42793Y49606D01*
Y49210D01*
X42793D01*
X42780Y49168D01*
X42717Y49181D01*
X42653Y49168D01*
X42600Y49133D01*
X42564Y49079D01*
X42551Y49016D01*
X42564Y48953D01*
X42600Y48899D01*
X42653Y48863D01*
X42717Y48851D01*
X42780Y48863D01*
X42833Y48899D01*
X42869Y48953D01*
X42882Y49016D01*
X42908Y49021D01*
X42950Y48993D01*
X42958Y48953D01*
X42993Y48899D01*
X43047Y48863D01*
X43110Y48851D01*
X43173Y48863D01*
X43227Y48899D01*
X43263Y48953D01*
X43275Y49016D01*
X43263Y49079D01*
X43227Y49133D01*
X43173Y49168D01*
X43157Y49172D01*
Y49210D01*
X43271D01*
Y49210D01*
X43305D01*
X43307Y49210D01*
Y49210D01*
X43307D01*
D01*
D01*
X43307Y49210D01*
D01*
X43420D01*
Y49154D01*
X43387Y49133D01*
X43351Y49079D01*
X43339Y49016D01*
X43351Y48953D01*
X43387Y48899D01*
X43441Y48863D01*
X43504Y48851D01*
X43567Y48863D01*
X43621Y48899D01*
X43657Y48953D01*
X43669Y49016D01*
X43665Y49038D01*
X43668Y49056D01*
Y49210D01*
X43783D01*
Y49609D01*
X43307D01*
X43307Y49609D01*
D01*
D01*
X43307Y49609D01*
D01*
X43305Y49609D01*
X43288D01*
X43271D01*
X43269Y49609D01*
Y49609D01*
Y49609D01*
D01*
D01*
D01*
X43198D01*
X43183Y49657D01*
X43227Y49686D01*
X43263Y49740D01*
X43275Y49803D01*
X43263Y49866D01*
X43227Y49920D01*
X43173Y49956D01*
X43110Y49968D01*
D02*
G37*
G36*
X40748D02*
X40685Y49956D01*
X40631Y49920D01*
X40595Y49866D01*
X40583Y49803D01*
X40595Y49740D01*
X40631Y49686D01*
X40685Y49651D01*
X40748Y49638D01*
X40811Y49651D01*
X40865Y49686D01*
X40901Y49740D01*
X40913Y49803D01*
X40901Y49866D01*
X40865Y49920D01*
X40811Y49956D01*
X40748Y49968D01*
D02*
G37*
G36*
X41929Y50362D02*
X41866Y50349D01*
X41812Y50314D01*
X41777Y50260D01*
X41764Y50197D01*
X41777Y50134D01*
X41812Y50080D01*
X41866Y50044D01*
X41929Y50032D01*
X41992Y50044D01*
X42046Y50080D01*
X42082Y50134D01*
X42094Y50197D01*
X42082Y50260D01*
X42046Y50314D01*
X41992Y50349D01*
X41929Y50362D01*
D02*
G37*
G36*
X42717D02*
X42653Y50349D01*
X42600Y50314D01*
X42564Y50260D01*
X42551Y50197D01*
X42564Y50134D01*
X42600Y50080D01*
X42653Y50044D01*
X42717Y50032D01*
X42780Y50044D01*
X42833Y50080D01*
X42869Y50134D01*
X42882Y50197D01*
X42869Y50260D01*
X42833Y50314D01*
X42780Y50349D01*
X42717Y50362D01*
D02*
G37*
G36*
X41142D02*
X41079Y50349D01*
X41025Y50314D01*
X40989Y50260D01*
X40977Y50197D01*
X40989Y50134D01*
X41025Y50080D01*
X41079Y50044D01*
X41142Y50032D01*
X41205Y50044D01*
X41259Y50080D01*
X41294Y50134D01*
X41307Y50197D01*
X41294Y50260D01*
X41259Y50314D01*
X41205Y50349D01*
X41142Y50362D01*
D02*
G37*
G36*
X41535D02*
X41472Y50349D01*
X41419Y50314D01*
X41383Y50260D01*
X41370Y50197D01*
X41383Y50134D01*
X41419Y50080D01*
X41472Y50044D01*
X41535Y50032D01*
X41599Y50044D01*
X41652Y50080D01*
X41688Y50134D01*
X41701Y50197D01*
X41688Y50260D01*
X41652Y50314D01*
X41599Y50349D01*
X41535Y50362D01*
D02*
G37*
G36*
X44291Y47212D02*
X44228Y47200D01*
X44175Y47164D01*
X44139Y47110D01*
X44126Y47047D01*
X44139Y46984D01*
X44175Y46930D01*
X44228Y46895D01*
X44291Y46882D01*
X44355Y46895D01*
X44408Y46930D01*
X44444Y46984D01*
X44457Y47047D01*
X44444Y47110D01*
X44408Y47164D01*
X44355Y47200D01*
X44291Y47212D01*
D02*
G37*
G36*
X41929Y48000D02*
X41866Y47987D01*
X41824Y47959D01*
X41567D01*
X41520Y47950D01*
X41479Y47923D01*
X41312Y47755D01*
X41285Y47715D01*
X41281Y47696D01*
X41141D01*
Y47139D01*
X41659D01*
Y47696D01*
D01*
X41659D01*
Y47696D01*
X41659D01*
X41659D01*
Y47710D01*
X41824D01*
X41866Y47682D01*
X41916Y47672D01*
X42025Y47563D01*
Y47263D01*
D01*
D01*
D01*
X42025D01*
X42025Y47263D01*
X42025Y47261D01*
Y47227D01*
D01*
D01*
X42025D01*
Y46925D01*
X41929Y46829D01*
X41923Y46836D01*
X41882Y46863D01*
X41835Y46872D01*
X41659D01*
Y47026D01*
X41141D01*
Y46469D01*
X41659D01*
Y46623D01*
X41770D01*
X41777Y46590D01*
X41812Y46537D01*
X41866Y46501D01*
X41929Y46488D01*
X41992Y46501D01*
X42046Y46537D01*
X42082Y46590D01*
X42092Y46640D01*
X42201Y46749D01*
X42424D01*
Y47225D01*
X42424Y47225D01*
D01*
D01*
D01*
D01*
D01*
D01*
D01*
D01*
X42424Y47227D01*
Y47235D01*
Y47244D01*
Y47249D01*
Y47261D01*
X42424Y47262D01*
X42424Y47263D01*
X42424D01*
X42424Y47263D01*
Y47739D01*
X42201D01*
X42092Y47848D01*
X42082Y47898D01*
X42046Y47951D01*
X41992Y47987D01*
X41929Y48000D01*
D02*
G37*
G36*
X39961Y47212D02*
X39897Y47200D01*
X39844Y47164D01*
X39808Y47110D01*
X39795Y47047D01*
X39808Y46984D01*
X39844Y46930D01*
X39897Y46895D01*
X39961Y46882D01*
X40024Y46895D01*
X40077Y46930D01*
X40113Y46984D01*
X40126Y47047D01*
X40113Y47110D01*
X40077Y47164D01*
X40024Y47200D01*
X39961Y47212D01*
D02*
G37*
G36*
X40354D02*
X40291Y47200D01*
X40238Y47164D01*
X40202Y47110D01*
X40189Y47047D01*
X40202Y46984D01*
X40238Y46930D01*
X40291Y46895D01*
X40354Y46882D01*
X40418Y46895D01*
X40471Y46930D01*
X40507Y46984D01*
X40519Y47047D01*
X40507Y47110D01*
X40471Y47164D01*
X40418Y47200D01*
X40354Y47212D01*
D02*
G37*
G36*
X34301Y47951D02*
X34238Y47938D01*
X34184Y47902D01*
X34149Y47849D01*
X34136Y47785D01*
X34149Y47722D01*
X34184Y47669D01*
X34238Y47633D01*
X34301Y47620D01*
X34364Y47633D01*
X34418Y47669D01*
X34454Y47722D01*
X34466Y47785D01*
X34454Y47849D01*
X34418Y47902D01*
X34364Y47938D01*
X34301Y47951D01*
D02*
G37*
G36*
X40515Y48585D02*
X39997D01*
Y48028D01*
X40132D01*
Y47933D01*
X40141Y47885D01*
X40168Y47845D01*
X40192Y47821D01*
X40202Y47771D01*
X40238Y47718D01*
X40291Y47682D01*
X40354Y47669D01*
X40418Y47682D01*
X40471Y47718D01*
X40507Y47771D01*
X40519Y47835D01*
X40507Y47898D01*
X40471Y47951D01*
X40418Y47987D01*
X40380Y47995D01*
Y48028D01*
X40515D01*
Y48585D01*
D02*
G37*
G36*
X39567Y47606D02*
X39504Y47594D01*
X39450Y47558D01*
X39414Y47504D01*
X39402Y47441D01*
X39414Y47378D01*
X39450Y47324D01*
X39504Y47288D01*
X39567Y47276D01*
X39630Y47288D01*
X39684Y47324D01*
X39720Y47378D01*
X39732Y47441D01*
X39720Y47504D01*
X39684Y47558D01*
X39630Y47594D01*
X39567Y47606D01*
D02*
G37*
G36*
X44291D02*
X44228Y47594D01*
X44175Y47558D01*
X44139Y47504D01*
X44126Y47441D01*
X44139Y47378D01*
X44175Y47324D01*
X44228Y47288D01*
X44291Y47276D01*
X44355Y47288D01*
X44408Y47324D01*
X44444Y47378D01*
X44457Y47441D01*
X44444Y47504D01*
X44408Y47558D01*
X44355Y47594D01*
X44291Y47606D01*
D02*
G37*
G36*
X39173Y46425D02*
X39110Y46412D01*
X39056Y46377D01*
X39021Y46323D01*
X39008Y46260D01*
X39021Y46197D01*
X39056Y46143D01*
X39110Y46107D01*
X39173Y46095D01*
X39236Y46107D01*
X39290Y46143D01*
X39326Y46197D01*
X39338Y46260D01*
X39326Y46323D01*
X39290Y46377D01*
X39236Y46412D01*
X39173Y46425D01*
D02*
G37*
G36*
X45472D02*
X45409Y46412D01*
X45356Y46377D01*
X45320Y46323D01*
X45307Y46260D01*
X45320Y46197D01*
X45356Y46143D01*
X45409Y46107D01*
X45472Y46095D01*
X45536Y46107D01*
X45589Y46143D01*
X45625Y46197D01*
X45638Y46260D01*
X45625Y46323D01*
X45589Y46377D01*
X45536Y46412D01*
X45472Y46425D01*
D02*
G37*
G36*
X40700Y46055D02*
X40550D01*
Y45865D01*
X40700D01*
Y46055D01*
D02*
G37*
G36*
X40950D02*
X40800D01*
Y45865D01*
X40950D01*
Y46055D01*
D02*
G37*
G36*
X44685Y46819D02*
X44622Y46806D01*
X44568Y46770D01*
X44532Y46717D01*
X44520Y46654D01*
X44532Y46590D01*
X44568Y46537D01*
X44622Y46501D01*
X44685Y46488D01*
X44748Y46501D01*
X44802Y46537D01*
X44838Y46590D01*
X44850Y46654D01*
X44838Y46717D01*
X44802Y46770D01*
X44748Y46806D01*
X44685Y46819D01*
D02*
G37*
G36*
X45079D02*
X45016Y46806D01*
X44962Y46770D01*
X44926Y46717D01*
X44914Y46654D01*
X44926Y46590D01*
X44962Y46537D01*
X45016Y46501D01*
X45079Y46488D01*
X45142Y46501D01*
X45196Y46537D01*
X45231Y46590D01*
X45244Y46654D01*
X45231Y46717D01*
X45196Y46770D01*
X45142Y46806D01*
X45079Y46819D01*
D02*
G37*
G36*
X40748Y47212D02*
X40685Y47200D01*
X40631Y47164D01*
X40595Y47110D01*
X40583Y47047D01*
X40595Y46984D01*
X40626Y46939D01*
Y46856D01*
X40550D01*
Y46379D01*
D01*
D01*
D01*
X40550D01*
X40550Y46379D01*
X40550Y46377D01*
Y46344D01*
D01*
D01*
X40550D01*
Y46155D01*
X40950D01*
Y46342D01*
X40950Y46342D01*
D01*
D01*
D01*
D01*
D01*
D01*
D01*
D01*
X40950Y46344D01*
Y46352D01*
Y46361D01*
Y46366D01*
Y46377D01*
X40950Y46379D01*
X40950Y46379D01*
D01*
X40950D01*
D01*
D01*
D01*
X40950Y46379D01*
Y46856D01*
X40874D01*
Y46945D01*
X40901Y46984D01*
X40913Y47047D01*
X40901Y47110D01*
X40865Y47164D01*
X40811Y47200D01*
X40748Y47212D01*
D02*
G37*
G36*
X39567Y46819D02*
X39504Y46806D01*
X39450Y46770D01*
X39414Y46717D01*
X39402Y46654D01*
X39414Y46590D01*
X39450Y46537D01*
X39504Y46501D01*
X39567Y46488D01*
X39630Y46501D01*
X39684Y46537D01*
X39720Y46590D01*
X39732Y46654D01*
X39720Y46717D01*
X39684Y46770D01*
X39630Y46806D01*
X39567Y46819D01*
D02*
G37*
G36*
X40748Y48000D02*
X40685Y47987D01*
X40631Y47951D01*
X40595Y47898D01*
X40583Y47835D01*
X40595Y47771D01*
X40631Y47718D01*
X40685Y47682D01*
X40748Y47669D01*
X40811Y47682D01*
X40865Y47718D01*
X40901Y47771D01*
X40913Y47835D01*
X40901Y47898D01*
X40865Y47951D01*
X40811Y47987D01*
X40748Y48000D01*
D02*
G37*
G36*
X44291Y48394D02*
X44228Y48381D01*
X44175Y48345D01*
X44139Y48292D01*
X44126Y48228D01*
X44139Y48165D01*
X44175Y48112D01*
X44228Y48076D01*
X44291Y48063D01*
X44355Y48076D01*
X44408Y48112D01*
X44444Y48165D01*
X44457Y48228D01*
X44444Y48292D01*
X44408Y48345D01*
X44355Y48381D01*
X44291Y48394D01*
D02*
G37*
G36*
X44685D02*
X44622Y48381D01*
X44568Y48345D01*
X44532Y48292D01*
X44520Y48228D01*
X44532Y48165D01*
X44568Y48112D01*
X44622Y48076D01*
X44685Y48063D01*
X44748Y48076D01*
X44802Y48112D01*
X44838Y48165D01*
X44850Y48228D01*
X44838Y48292D01*
X44802Y48345D01*
X44748Y48381D01*
X44685Y48394D01*
D02*
G37*
G36*
X43110D02*
X43047Y48381D01*
X42993Y48345D01*
X42958Y48292D01*
X42945Y48228D01*
X42958Y48165D01*
X42993Y48112D01*
X43047Y48076D01*
X43110Y48063D01*
X43173Y48076D01*
X43227Y48112D01*
X43263Y48165D01*
X43275Y48228D01*
X43263Y48292D01*
X43227Y48345D01*
X43173Y48381D01*
X43110Y48394D01*
D02*
G37*
G36*
X43504D02*
X43441Y48381D01*
X43387Y48345D01*
X43351Y48292D01*
X43339Y48228D01*
X43351Y48165D01*
X43387Y48112D01*
X43441Y48076D01*
X43504Y48063D01*
X43567Y48076D01*
X43621Y48112D01*
X43657Y48165D01*
X43669Y48228D01*
X43657Y48292D01*
X43621Y48345D01*
X43567Y48381D01*
X43504Y48394D01*
D02*
G37*
G36*
X41535Y48787D02*
X41472Y48775D01*
X41419Y48739D01*
X41383Y48685D01*
X41370Y48622D01*
X41383Y48559D01*
X41419Y48505D01*
X41472Y48469D01*
X41535Y48457D01*
X41599Y48469D01*
X41652Y48505D01*
X41688Y48559D01*
X41701Y48622D01*
X41688Y48685D01*
X41652Y48739D01*
X41599Y48775D01*
X41535Y48787D01*
D02*
G37*
G36*
X42523Y48920D02*
X42123D01*
Y48805D01*
X41988D01*
X41941Y48796D01*
X41927Y48787D01*
X41866Y48775D01*
X41812Y48739D01*
X41777Y48685D01*
X41764Y48622D01*
X41777Y48559D01*
X41812Y48505D01*
X41866Y48469D01*
X41929Y48457D01*
X41992Y48469D01*
X42046Y48505D01*
X42075Y48549D01*
X42123Y48535D01*
Y48444D01*
D01*
D01*
D01*
X42123D01*
X42123Y48444D01*
X42123Y48442D01*
Y48408D01*
D01*
D01*
X42123D01*
Y48316D01*
X42075Y48301D01*
X42046Y48345D01*
X41992Y48381D01*
X41929Y48394D01*
X41866Y48381D01*
X41812Y48345D01*
X41777Y48292D01*
X41764Y48228D01*
X41777Y48165D01*
X41812Y48112D01*
X41866Y48076D01*
X41929Y48063D01*
X41992Y48076D01*
X42046Y48112D01*
X42075Y48155D01*
X42123Y48141D01*
Y47930D01*
X42523D01*
Y48045D01*
X42657D01*
X42705Y48054D01*
X42719Y48064D01*
X42780Y48076D01*
X42833Y48112D01*
X42869Y48165D01*
X42882Y48228D01*
X42869Y48292D01*
X42833Y48345D01*
X42780Y48381D01*
X42717Y48394D01*
X42653Y48381D01*
X42600Y48345D01*
X42570Y48301D01*
X42523Y48316D01*
Y48407D01*
X42523Y48407D01*
D01*
D01*
D01*
D01*
D01*
D01*
D01*
D01*
X42523Y48408D01*
Y48416D01*
Y48425D01*
Y48431D01*
Y48442D01*
X42523Y48443D01*
X42523Y48444D01*
D01*
X42523D01*
D01*
D01*
D01*
X42523Y48444D01*
Y48535D01*
X42570Y48549D01*
X42600Y48505D01*
X42653Y48469D01*
X42717Y48457D01*
X42780Y48469D01*
X42833Y48505D01*
X42869Y48559D01*
X42882Y48622D01*
X42869Y48685D01*
X42833Y48739D01*
X42780Y48775D01*
X42717Y48787D01*
X42653Y48775D01*
X42600Y48739D01*
X42570Y48695D01*
X42523Y48710D01*
Y48920D01*
D02*
G37*
G36*
X40748Y48787D02*
X40685Y48775D01*
X40631Y48739D01*
X40595Y48685D01*
X40583Y48622D01*
X40595Y48559D01*
X40631Y48505D01*
X40685Y48469D01*
X40748Y48457D01*
X40811Y48469D01*
X40865Y48505D01*
X40901Y48559D01*
X40913Y48622D01*
X40901Y48685D01*
X40865Y48739D01*
X40811Y48775D01*
X40748Y48787D01*
D02*
G37*
G36*
X41142D02*
X41079Y48775D01*
X41025Y48739D01*
X40989Y48685D01*
X40977Y48622D01*
X40989Y48559D01*
X41025Y48505D01*
X41079Y48469D01*
X41142Y48457D01*
X41205Y48469D01*
X41259Y48505D01*
X41294Y48559D01*
X41307Y48622D01*
X41294Y48685D01*
X41259Y48739D01*
X41205Y48775D01*
X41142Y48787D01*
D02*
G37*
G36*
X44291Y48000D02*
X44228Y47987D01*
X44175Y47951D01*
X44139Y47898D01*
X44126Y47835D01*
X44139Y47771D01*
X44175Y47718D01*
X44228Y47682D01*
X44291Y47669D01*
X44355Y47682D01*
X44408Y47718D01*
X44444Y47771D01*
X44457Y47835D01*
X44444Y47898D01*
X44408Y47951D01*
X44355Y47987D01*
X44291Y48000D01*
D02*
G37*
G36*
X44685D02*
X44622Y47987D01*
X44568Y47951D01*
X44532Y47898D01*
X44520Y47835D01*
X44532Y47771D01*
X44568Y47718D01*
X44622Y47682D01*
X44685Y47669D01*
X44748Y47682D01*
X44802Y47718D01*
X44838Y47771D01*
X44850Y47835D01*
X44838Y47898D01*
X44802Y47951D01*
X44748Y47987D01*
X44685Y48000D01*
D02*
G37*
G36*
X42717D02*
X42653Y47987D01*
X42600Y47951D01*
X42564Y47898D01*
X42551Y47835D01*
X42564Y47771D01*
X42600Y47718D01*
X42653Y47682D01*
X42717Y47669D01*
X42780Y47682D01*
X42833Y47718D01*
X42869Y47771D01*
X42882Y47835D01*
X42869Y47898D01*
X42833Y47951D01*
X42780Y47987D01*
X42717Y48000D01*
D02*
G37*
G36*
X43898D02*
X43834Y47987D01*
X43781Y47951D01*
X43745Y47898D01*
X43732Y47835D01*
X43745Y47771D01*
X43781Y47718D01*
X43834Y47682D01*
X43898Y47669D01*
X43961Y47682D01*
X44014Y47718D01*
X44050Y47771D01*
X44063Y47835D01*
X44050Y47898D01*
X44014Y47951D01*
X43961Y47987D01*
X43898Y48000D01*
D02*
G37*
G36*
X41142Y48394D02*
X41079Y48381D01*
X41025Y48345D01*
X40989Y48292D01*
X40977Y48228D01*
X40989Y48165D01*
X41025Y48112D01*
X41079Y48076D01*
X41142Y48063D01*
X41205Y48076D01*
X41259Y48112D01*
X41294Y48165D01*
X41307Y48228D01*
X41294Y48292D01*
X41259Y48345D01*
X41205Y48381D01*
X41142Y48394D01*
D02*
G37*
G36*
X41535D02*
X41472Y48381D01*
X41419Y48345D01*
X41383Y48292D01*
X41370Y48228D01*
X41383Y48165D01*
X41419Y48112D01*
X41472Y48076D01*
X41535Y48063D01*
X41599Y48076D01*
X41652Y48112D01*
X41688Y48165D01*
X41701Y48228D01*
X41688Y48292D01*
X41652Y48345D01*
X41599Y48381D01*
X41535Y48394D01*
D02*
G37*
G36*
X36024Y48098D02*
X35960Y48086D01*
X35907Y48050D01*
X35871Y47996D01*
X35858Y47933D01*
X35871Y47870D01*
X35907Y47816D01*
X35960Y47780D01*
X36024Y47768D01*
X36087Y47780D01*
X36140Y47816D01*
X36176Y47870D01*
X36189Y47933D01*
X36176Y47996D01*
X36140Y48050D01*
X36087Y48086D01*
X36024Y48098D01*
D02*
G37*
G36*
X33366Y48197D02*
X33303Y48184D01*
X33249Y48148D01*
X33214Y48095D01*
X33201Y48032D01*
X33214Y47968D01*
X33249Y47915D01*
X33303Y47879D01*
X33366Y47866D01*
X33429Y47879D01*
X33483Y47915D01*
X33519Y47968D01*
X33531Y48032D01*
X33519Y48095D01*
X33483Y48148D01*
X33429Y48184D01*
X33366Y48197D01*
D02*
G37*
G36*
X43110Y50756D02*
X43047Y50743D01*
X42993Y50707D01*
X42958Y50654D01*
X42945Y50591D01*
X42958Y50527D01*
X42993Y50474D01*
X43047Y50438D01*
X43110Y50425D01*
X43173Y50438D01*
X43227Y50474D01*
X43263Y50527D01*
X43275Y50591D01*
X43263Y50654D01*
X43227Y50707D01*
X43173Y50743D01*
X43110Y50756D01*
D02*
G37*
G36*
X29100Y55595D02*
X29032Y55586D01*
X28968Y55560D01*
X28913Y55518D01*
X28871Y55463D01*
X28845Y55399D01*
X28836Y55331D01*
X28845Y55262D01*
X28871Y55199D01*
X28913Y55144D01*
X28968Y55102D01*
X29032Y55075D01*
X29100Y55066D01*
X29168Y55075D01*
X29232Y55102D01*
X29287Y55144D01*
X29329Y55199D01*
X29355Y55262D01*
X29364Y55331D01*
X29355Y55399D01*
X29329Y55463D01*
X29287Y55518D01*
X29232Y55560D01*
X29168Y55586D01*
X29100Y55595D01*
D02*
G37*
G36*
X30100Y55597D02*
X30032Y55588D01*
X29968Y55562D01*
X29913Y55520D01*
X29871Y55465D01*
X29845Y55401D01*
X29836Y55333D01*
X29845Y55265D01*
X29871Y55201D01*
X29913Y55146D01*
X29968Y55104D01*
X30032Y55078D01*
X30100Y55069D01*
X30168Y55078D01*
X30232Y55104D01*
X30287Y55146D01*
X30329Y55201D01*
X30355Y55265D01*
X30364Y55333D01*
X30355Y55401D01*
X30329Y55465D01*
X30287Y55520D01*
X30232Y55562D01*
X30168Y55588D01*
X30100Y55597D01*
D02*
G37*
G36*
X26100Y55595D02*
X26032Y55586D01*
X25968Y55560D01*
X25913Y55518D01*
X25871Y55463D01*
X25845Y55399D01*
X25836Y55331D01*
X25845Y55262D01*
X25871Y55199D01*
X25913Y55144D01*
X25968Y55102D01*
X26032Y55075D01*
X26100Y55066D01*
X26168Y55075D01*
X26232Y55102D01*
X26287Y55144D01*
X26329Y55199D01*
X26355Y55262D01*
X26364Y55331D01*
X26355Y55399D01*
X26329Y55463D01*
X26287Y55518D01*
X26232Y55560D01*
X26168Y55586D01*
X26100Y55595D01*
D02*
G37*
G36*
X28100D02*
X28032Y55586D01*
X27968Y55560D01*
X27913Y55518D01*
X27871Y55463D01*
X27845Y55399D01*
X27836Y55331D01*
X27845Y55262D01*
X27871Y55199D01*
X27913Y55144D01*
X27968Y55102D01*
X28032Y55075D01*
X28100Y55066D01*
X28168Y55075D01*
X28232Y55102D01*
X28287Y55144D01*
X28329Y55199D01*
X28355Y55262D01*
X28364Y55331D01*
X28355Y55399D01*
X28329Y55463D01*
X28287Y55518D01*
X28232Y55560D01*
X28168Y55586D01*
X28100Y55595D01*
D02*
G37*
G36*
X34688Y56064D02*
X34619Y56055D01*
X34556Y56029D01*
X34501Y55987D01*
X34459Y55932D01*
X34433Y55868D01*
X34424Y55800D01*
X34433Y55732D01*
X34459Y55668D01*
X34501Y55613D01*
X34556Y55571D01*
X34619Y55545D01*
X34688Y55536D01*
X34756Y55545D01*
X34820Y55571D01*
X34824Y55575D01*
X34869Y55553D01*
Y55541D01*
X35426D01*
Y56059D01*
X34869D01*
Y56047D01*
X34824Y56025D01*
X34820Y56029D01*
X34756Y56055D01*
X34688Y56064D01*
D02*
G37*
G36*
X34252Y56563D02*
X34184Y56554D01*
X34120Y56528D01*
X34065Y56486D01*
X34023Y56431D01*
X33997Y56368D01*
X33988Y56299D01*
X33997Y56231D01*
X34023Y56167D01*
X34065Y56112D01*
X34120Y56070D01*
X34184Y56044D01*
X34252Y56035D01*
X34320Y56044D01*
X34384Y56070D01*
X34439Y56112D01*
X34481Y56167D01*
X34507Y56231D01*
X34516Y56299D01*
X34507Y56368D01*
X34481Y56431D01*
X34439Y56486D01*
X34384Y56528D01*
X34320Y56554D01*
X34252Y56563D01*
D02*
G37*
G36*
X26870Y55480D02*
X26807Y55468D01*
X26753Y55432D01*
X26717Y55378D01*
X26705Y55315D01*
X26717Y55252D01*
X26753Y55198D01*
X26807Y55162D01*
X26870Y55150D01*
X26933Y55162D01*
X26987Y55198D01*
X27023Y55252D01*
X27035Y55315D01*
X27023Y55378D01*
X26987Y55432D01*
X26933Y55468D01*
X26870Y55480D01*
D02*
G37*
G36*
X44439Y55825D02*
X44371Y55816D01*
X44307Y55790D01*
X44252Y55748D01*
X44210Y55693D01*
X44184Y55629D01*
X44175Y55561D01*
X44184Y55493D01*
X44210Y55429D01*
X44252Y55374D01*
X44307Y55332D01*
X44371Y55306D01*
X44439Y55297D01*
X44507Y55306D01*
X44571Y55332D01*
X44626Y55374D01*
X44658Y55416D01*
X44800D01*
Y55219D01*
D01*
D01*
D01*
X44800D01*
X44800Y55219D01*
X44800Y55217D01*
Y55183D01*
D01*
D01*
X44800D01*
Y54968D01*
X44783D01*
X44728Y54957D01*
X44681Y54925D01*
X44614Y54858D01*
X44557Y54881D01*
X44488Y54890D01*
X44420Y54881D01*
X44356Y54855D01*
X44301Y54813D01*
X44259Y54758D01*
X44233Y54694D01*
X44224Y54626D01*
X44233Y54558D01*
X44259Y54494D01*
X44301Y54439D01*
X44356Y54397D01*
X44420Y54371D01*
X44488Y54362D01*
X44557Y54371D01*
X44620Y54397D01*
X44675Y54439D01*
X44717Y54494D01*
X44743Y54558D01*
X44747Y54581D01*
X44843Y54678D01*
X44980D01*
X45036Y54689D01*
X45059Y54705D01*
X45200D01*
Y55181D01*
X45200Y55181D01*
D01*
D01*
D01*
D01*
D01*
D01*
D01*
D01*
X45200Y55183D01*
Y55191D01*
Y55200D01*
Y55205D01*
Y55217D01*
X45200Y55218D01*
X45200Y55219D01*
D01*
X45200D01*
D01*
D01*
D01*
X45200Y55219D01*
Y55695D01*
X45083D01*
X45030Y55706D01*
X44658D01*
X44626Y55748D01*
X44571Y55790D01*
X44507Y55816D01*
X44439Y55825D01*
D02*
G37*
G36*
X30260Y53468D02*
X30197Y53456D01*
X30143Y53420D01*
X30107Y53366D01*
X30095Y53303D01*
X30107Y53240D01*
X30143Y53186D01*
X30197Y53151D01*
X30260Y53138D01*
X30323Y53151D01*
X30377Y53186D01*
X30412Y53240D01*
X30425Y53303D01*
X30412Y53366D01*
X30377Y53420D01*
X30323Y53456D01*
X30260Y53468D01*
D02*
G37*
G36*
X42028Y54054D02*
X41959Y54045D01*
X41895Y54018D01*
X41841Y53976D01*
X41799Y53921D01*
X41772Y53858D01*
X41763Y53789D01*
X41772Y53721D01*
X41799Y53657D01*
X41841Y53603D01*
X41895Y53561D01*
X41959Y53534D01*
X42028Y53525D01*
X42096Y53534D01*
X42160Y53561D01*
X42214Y53603D01*
X42256Y53657D01*
X42283Y53721D01*
X42292Y53789D01*
X42283Y53858D01*
X42256Y53921D01*
X42214Y53976D01*
X42160Y54018D01*
X42096Y54045D01*
X42028Y54054D01*
D02*
G37*
G36*
X27337Y53340D02*
X27274Y53327D01*
X27220Y53292D01*
X27184Y53238D01*
X27172Y53175D01*
X27184Y53112D01*
X27220Y53058D01*
X27274Y53022D01*
X27337Y53010D01*
X27400Y53022D01*
X27454Y53058D01*
X27490Y53112D01*
X27502Y53175D01*
X27490Y53238D01*
X27454Y53292D01*
X27400Y53327D01*
X27337Y53340D01*
D02*
G37*
G36*
X41659Y53944D02*
X41141D01*
Y53387D01*
X41216D01*
D01*
X41247Y53348D01*
X41235Y53285D01*
X41247Y53222D01*
X41283Y53168D01*
X41337Y53132D01*
X41400Y53120D01*
X41463Y53132D01*
X41517Y53168D01*
X41553Y53222D01*
X41565Y53285D01*
X41553Y53348D01*
X41573Y53387D01*
X41659D01*
Y53944D01*
D02*
G37*
G36*
X35700Y55361D02*
X35632Y55353D01*
X35568Y55326D01*
X35513Y55284D01*
X35471Y55229D01*
X35445Y55166D01*
X35436Y55097D01*
X35445Y55029D01*
X35471Y54965D01*
X35513Y54910D01*
X35568Y54868D01*
X35632Y54842D01*
X35700Y54833D01*
X35768Y54842D01*
X35832Y54868D01*
X35887Y54910D01*
X35929Y54965D01*
X35955Y55029D01*
X35964Y55097D01*
X35955Y55166D01*
X35929Y55229D01*
X35887Y55284D01*
X35832Y55326D01*
X35768Y55353D01*
X35700Y55361D01*
D02*
G37*
G36*
X43012Y55579D02*
X42943Y55570D01*
X42880Y55544D01*
X42825Y55502D01*
X42783Y55447D01*
X42757Y55383D01*
X42748Y55315D01*
X42757Y55247D01*
X42783Y55183D01*
X42825Y55128D01*
X42880Y55086D01*
X42943Y55060D01*
X43012Y55051D01*
X43080Y55060D01*
X43144Y55086D01*
X43199Y55128D01*
X43241Y55183D01*
X43267Y55247D01*
X43276Y55315D01*
X43267Y55383D01*
X43241Y55447D01*
X43199Y55502D01*
X43144Y55544D01*
X43080Y55570D01*
X43012Y55579D01*
D02*
G37*
G36*
X41400Y55173D02*
X41332Y55164D01*
X41268Y55138D01*
X41213Y55096D01*
X41171Y55041D01*
X41145Y54977D01*
X41136Y54909D01*
X41145Y54841D01*
X41171Y54777D01*
X41213Y54722D01*
X41255Y54690D01*
Y54613D01*
X41141D01*
Y54056D01*
X41659D01*
Y54613D01*
X41545D01*
Y54690D01*
X41587Y54722D01*
X41629Y54777D01*
X41655Y54841D01*
X41664Y54909D01*
X41655Y54977D01*
X41629Y55041D01*
X41587Y55096D01*
X41532Y55138D01*
X41468Y55164D01*
X41400Y55173D01*
D02*
G37*
G36*
X39442Y55159D02*
X39373Y55150D01*
X39310Y55123D01*
X39255Y55081D01*
X39213Y55027D01*
X39186Y54963D01*
X39177Y54894D01*
X39186Y54826D01*
X39213Y54762D01*
X39255Y54708D01*
X39310Y54666D01*
X39373Y54639D01*
X39442Y54630D01*
X39510Y54639D01*
X39574Y54666D01*
X39629Y54708D01*
X39671Y54762D01*
X39697Y54826D01*
X39706Y54894D01*
X39697Y54963D01*
X39671Y55027D01*
X39629Y55081D01*
X39574Y55123D01*
X39510Y55150D01*
X39442Y55159D01*
D02*
G37*
G36*
X31765Y56590D02*
X31696Y56581D01*
X31632Y56555D01*
X31578Y56513D01*
X31536Y56458D01*
X31509Y56394D01*
X31500Y56326D01*
X31509Y56258D01*
X31536Y56194D01*
X31578Y56139D01*
X31632Y56097D01*
X31696Y56071D01*
X31765Y56062D01*
X31833Y56071D01*
X31897Y56097D01*
X31951Y56139D01*
X31993Y56194D01*
X32020Y56258D01*
X32029Y56326D01*
X32020Y56394D01*
X31993Y56458D01*
X31951Y56513D01*
X31897Y56555D01*
X31833Y56581D01*
X31765Y56590D01*
D02*
G37*
G36*
X33415Y59221D02*
X33347Y59212D01*
X33283Y59186D01*
X33228Y59144D01*
X33187Y59089D01*
X33160Y59025D01*
X33151Y58957D01*
X33160Y58888D01*
X33187Y58825D01*
X33228Y58770D01*
X33283Y58728D01*
X33347Y58701D01*
X33415Y58692D01*
X33484Y58701D01*
X33547Y58728D01*
X33602Y58770D01*
X33644Y58825D01*
X33671Y58888D01*
X33680Y58957D01*
X33671Y59025D01*
X33644Y59089D01*
X33602Y59144D01*
X33547Y59186D01*
X33484Y59212D01*
X33415Y59221D01*
D02*
G37*
G36*
X26100Y59334D02*
X26032Y59325D01*
X25968Y59298D01*
X25913Y59256D01*
X25871Y59201D01*
X25845Y59138D01*
X25836Y59069D01*
X25845Y59001D01*
X25871Y58937D01*
X25913Y58882D01*
X25968Y58840D01*
X26032Y58814D01*
X26100Y58805D01*
X26168Y58814D01*
X26232Y58840D01*
X26287Y58882D01*
X26329Y58937D01*
X26355Y59001D01*
X26364Y59069D01*
X26355Y59138D01*
X26329Y59201D01*
X26287Y59256D01*
X26232Y59298D01*
X26168Y59325D01*
X26100Y59334D01*
D02*
G37*
G36*
X37000Y58864D02*
X36932Y58855D01*
X36868Y58829D01*
X36813Y58787D01*
X36771Y58732D01*
X36745Y58668D01*
X36736Y58600D01*
X36745Y58532D01*
X36771Y58468D01*
X36813Y58413D01*
X36868Y58371D01*
X36932Y58345D01*
X37000Y58336D01*
X37068Y58345D01*
X37132Y58371D01*
X37187Y58413D01*
X37229Y58468D01*
X37255Y58532D01*
X37264Y58600D01*
X37255Y58668D01*
X37229Y58732D01*
X37187Y58787D01*
X37132Y58829D01*
X37068Y58855D01*
X37000Y58864D01*
D02*
G37*
G36*
X35400Y58964D02*
X35332Y58955D01*
X35268Y58929D01*
X35213Y58887D01*
X35171Y58832D01*
X35145Y58768D01*
X35136Y58700D01*
X35145Y58632D01*
X35171Y58568D01*
X35213Y58513D01*
X35268Y58471D01*
X35332Y58445D01*
X35400Y58436D01*
X35468Y58445D01*
X35532Y58471D01*
X35587Y58513D01*
X35629Y58568D01*
X35655Y58632D01*
X35664Y58700D01*
X35655Y58768D01*
X35629Y58832D01*
X35587Y58887D01*
X35532Y58929D01*
X35468Y58955D01*
X35400Y58964D01*
D02*
G37*
G36*
X30100Y59334D02*
X30032Y59325D01*
X29968Y59298D01*
X29913Y59256D01*
X29871Y59201D01*
X29845Y59138D01*
X29836Y59069D01*
X29845Y59001D01*
X29871Y58937D01*
X29913Y58882D01*
X29968Y58840D01*
X30032Y58814D01*
X30100Y58805D01*
X30168Y58814D01*
X30232Y58840D01*
X30287Y58882D01*
X30329Y58937D01*
X30355Y59001D01*
X30364Y59069D01*
X30355Y59138D01*
X30329Y59201D01*
X30287Y59256D01*
X30232Y59298D01*
X30168Y59325D01*
X30100Y59334D01*
D02*
G37*
G36*
X31100D02*
X31032Y59325D01*
X30968Y59298D01*
X30913Y59256D01*
X30871Y59201D01*
X30845Y59138D01*
X30836Y59069D01*
X30845Y59001D01*
X30871Y58937D01*
X30913Y58882D01*
X30968Y58840D01*
X31032Y58814D01*
X31100Y58805D01*
X31168Y58814D01*
X31232Y58840D01*
X31287Y58882D01*
X31329Y58937D01*
X31355Y59001D01*
X31364Y59069D01*
X31355Y59138D01*
X31329Y59201D01*
X31287Y59256D01*
X31232Y59298D01*
X31168Y59325D01*
X31100Y59334D01*
D02*
G37*
G36*
X27100D02*
X27032Y59325D01*
X26968Y59298D01*
X26913Y59256D01*
X26871Y59201D01*
X26845Y59138D01*
X26836Y59069D01*
X26845Y59001D01*
X26871Y58937D01*
X26913Y58882D01*
X26968Y58840D01*
X27032Y58814D01*
X27100Y58805D01*
X27168Y58814D01*
X27232Y58840D01*
X27287Y58882D01*
X27329Y58937D01*
X27355Y59001D01*
X27364Y59069D01*
X27355Y59138D01*
X27329Y59201D01*
X27287Y59256D01*
X27232Y59298D01*
X27168Y59325D01*
X27100Y59334D01*
D02*
G37*
G36*
X29100D02*
X29032Y59325D01*
X28968Y59298D01*
X28913Y59256D01*
X28871Y59201D01*
X28845Y59138D01*
X28836Y59069D01*
X28845Y59001D01*
X28871Y58937D01*
X28913Y58882D01*
X28968Y58840D01*
X29032Y58814D01*
X29100Y58805D01*
X29168Y58814D01*
X29232Y58840D01*
X29287Y58882D01*
X29329Y58937D01*
X29355Y59001D01*
X29364Y59069D01*
X29355Y59138D01*
X29329Y59201D01*
X29287Y59256D01*
X29232Y59298D01*
X29168Y59325D01*
X29100Y59334D01*
D02*
G37*
G36*
X39383Y56970D02*
X39314Y56961D01*
X39251Y56934D01*
X39196Y56892D01*
X39154Y56838D01*
X39127Y56774D01*
X39118Y56706D01*
X39127Y56637D01*
X39154Y56573D01*
X39196Y56519D01*
X39251Y56477D01*
X39314Y56450D01*
X39383Y56441D01*
X39451Y56450D01*
X39515Y56477D01*
X39570Y56519D01*
X39612Y56573D01*
X39638Y56637D01*
X39647Y56706D01*
X39638Y56774D01*
X39612Y56838D01*
X39570Y56892D01*
X39515Y56934D01*
X39451Y56961D01*
X39383Y56970D01*
D02*
G37*
G36*
X42168Y57464D02*
X42100Y57455D01*
X42036Y57429D01*
X41982Y57387D01*
X41940Y57332D01*
X41913Y57268D01*
X41904Y57200D01*
X41913Y57132D01*
X41940Y57068D01*
X41982Y57013D01*
X42036Y56971D01*
X42100Y56945D01*
X42168Y56936D01*
X42237Y56945D01*
X42301Y56971D01*
X42355Y57013D01*
X42397Y57068D01*
X42424Y57132D01*
X42433Y57200D01*
X42424Y57268D01*
X42397Y57332D01*
X42355Y57387D01*
X42301Y57429D01*
X42237Y57455D01*
X42168Y57464D01*
D02*
G37*
G36*
X35200Y56747D02*
X35132Y56738D01*
X35068Y56712D01*
X35013Y56670D01*
X34971Y56615D01*
X34945Y56551D01*
X34936Y56483D01*
X34945Y56415D01*
X34971Y56351D01*
X35013Y56296D01*
X35068Y56254D01*
X35132Y56228D01*
X35200Y56219D01*
X35268Y56228D01*
X35332Y56254D01*
X35387Y56296D01*
X35429Y56351D01*
X35455Y56415D01*
X35464Y56483D01*
X35455Y56551D01*
X35429Y56615D01*
X35387Y56670D01*
X35332Y56712D01*
X35268Y56738D01*
X35200Y56747D01*
D02*
G37*
G36*
X36200Y56789D02*
X36132Y56780D01*
X36068Y56754D01*
X36013Y56712D01*
X35971Y56657D01*
X35945Y56593D01*
X35942Y56570D01*
X35715Y56343D01*
X35683Y56296D01*
X35672Y56240D01*
Y56059D01*
X35539D01*
Y55541D01*
X36096D01*
Y56059D01*
X35962D01*
Y56180D01*
X36075Y56293D01*
X36132Y56270D01*
X36200Y56261D01*
X36268Y56270D01*
X36332Y56296D01*
X36387Y56338D01*
X36429Y56393D01*
X36455Y56456D01*
X36464Y56525D01*
X36455Y56593D01*
X36429Y56657D01*
X36387Y56712D01*
X36332Y56754D01*
X36268Y56780D01*
X36200Y56789D01*
D02*
G37*
G36*
X46000Y58469D02*
X45932Y58460D01*
X45868Y58434D01*
X45813Y58392D01*
X45771Y58337D01*
X45745Y58273D01*
X45736Y58205D01*
X45745Y58136D01*
X45771Y58073D01*
X45813Y58018D01*
X45868Y57976D01*
X45932Y57949D01*
X46000Y57940D01*
X46068Y57949D01*
X46132Y57976D01*
X46187Y58018D01*
X46229Y58073D01*
X46255Y58136D01*
X46264Y58205D01*
X46255Y58273D01*
X46229Y58337D01*
X46187Y58392D01*
X46132Y58434D01*
X46068Y58460D01*
X46000Y58469D01*
D02*
G37*
G36*
X41683Y58630D02*
X41615Y58621D01*
X41551Y58595D01*
X41496Y58553D01*
X41454Y58498D01*
X41428Y58435D01*
X41419Y58366D01*
X41428Y58298D01*
X41454Y58234D01*
X41496Y58179D01*
X41551Y58137D01*
X41615Y58111D01*
X41683Y58102D01*
X41751Y58111D01*
X41815Y58137D01*
X41870Y58179D01*
X41912Y58234D01*
X41938Y58298D01*
X41947Y58366D01*
X41938Y58435D01*
X41912Y58498D01*
X41870Y58553D01*
X41815Y58595D01*
X41751Y58621D01*
X41683Y58630D01*
D02*
G37*
G36*
X43900Y57533D02*
X43832Y57524D01*
X43768Y57497D01*
X43713Y57455D01*
X43671Y57401D01*
X43645Y57337D01*
X43636Y57269D01*
X43645Y57200D01*
X43671Y57136D01*
X43713Y57082D01*
X43768Y57040D01*
X43832Y57013D01*
X43900Y57004D01*
X43968Y57013D01*
X44032Y57040D01*
X44087Y57082D01*
X44129Y57136D01*
X44155Y57200D01*
X44164Y57269D01*
X44155Y57337D01*
X44129Y57401D01*
X44087Y57455D01*
X44032Y57497D01*
X43968Y57524D01*
X43900Y57533D01*
D02*
G37*
G36*
X34252Y58384D02*
X34184Y58375D01*
X34120Y58349D01*
X34065Y58307D01*
X34023Y58252D01*
X33997Y58188D01*
X33988Y58120D01*
X33997Y58052D01*
X34023Y57988D01*
X34065Y57933D01*
X34120Y57891D01*
X34184Y57865D01*
X34252Y57856D01*
X34320Y57865D01*
X34384Y57891D01*
X34439Y57933D01*
X34481Y57988D01*
X34507Y58052D01*
X34516Y58120D01*
X34507Y58188D01*
X34481Y58252D01*
X34439Y58307D01*
X34384Y58349D01*
X34320Y58375D01*
X34252Y58384D01*
D02*
G37*
G36*
X42717Y51937D02*
X42653Y51924D01*
X42600Y51888D01*
X42564Y51835D01*
X42551Y51772D01*
X42564Y51708D01*
X42568Y51703D01*
X42544Y51659D01*
X42104D01*
Y51141D01*
X42312D01*
X42556Y50896D01*
X42597Y50869D01*
X42599Y50869D01*
X42600Y50867D01*
X42653Y50832D01*
X42717Y50819D01*
X42780Y50832D01*
X42833Y50867D01*
X42869Y50921D01*
X42882Y50984D01*
X42869Y51047D01*
X42833Y51101D01*
X42780Y51137D01*
X42783Y51141D01*
Y51141D01*
D01*
D01*
D01*
X43331D01*
Y51659D01*
X43140D01*
X42939Y51860D01*
X42899Y51887D01*
X42851Y51896D01*
X42822D01*
X42780Y51924D01*
X42717Y51937D01*
D02*
G37*
G36*
X31988Y51308D02*
X31925Y51295D01*
X31871Y51259D01*
X31836Y51206D01*
X31823Y51143D01*
X31836Y51079D01*
X31871Y51026D01*
X31925Y50990D01*
X31988Y50978D01*
X32051Y50990D01*
X32105Y51026D01*
X32141Y51079D01*
X32153Y51143D01*
X32141Y51206D01*
X32105Y51259D01*
X32051Y51295D01*
X31988Y51308D01*
D02*
G37*
G36*
X39431Y50948D02*
X39203D01*
Y50739D01*
X39431D01*
Y50948D01*
D02*
G37*
G36*
X41929Y51149D02*
X41866Y51137D01*
X41812Y51101D01*
X41777Y51047D01*
X41764Y50984D01*
X41777Y50921D01*
X41812Y50867D01*
X41866Y50832D01*
X41929Y50819D01*
X41992Y50832D01*
X42046Y50867D01*
X42082Y50921D01*
X42094Y50984D01*
X42082Y51047D01*
X42046Y51101D01*
X41992Y51137D01*
X41929Y51149D01*
D02*
G37*
G36*
X46600Y51588D02*
X46537Y51575D01*
X46483Y51540D01*
X46447Y51486D01*
X46435Y51423D01*
X46447Y51360D01*
X46483Y51306D01*
X46537Y51270D01*
X46600Y51258D01*
X46663Y51270D01*
X46717Y51306D01*
X46753Y51360D01*
X46765Y51423D01*
X46753Y51486D01*
X46717Y51540D01*
X46663Y51575D01*
X46600Y51588D01*
D02*
G37*
G36*
X39000Y51865D02*
X38937Y51853D01*
X38883Y51817D01*
X38847Y51763D01*
X38835Y51700D01*
X38847Y51637D01*
X38883Y51583D01*
X38937Y51547D01*
X39000Y51535D01*
X39063Y51547D01*
X39117Y51583D01*
X39153Y51637D01*
X39165Y51700D01*
X39153Y51763D01*
X39117Y51817D01*
X39063Y51853D01*
X39000Y51865D01*
D02*
G37*
G36*
X36808Y51349D02*
X36745Y51337D01*
X36691Y51301D01*
X36655Y51247D01*
X36643Y51184D01*
X36655Y51121D01*
X36691Y51067D01*
X36745Y51032D01*
X36808Y51019D01*
X36871Y51032D01*
X36925Y51067D01*
X36960Y51121D01*
X36973Y51184D01*
X36960Y51247D01*
X36925Y51301D01*
X36871Y51337D01*
X36808Y51349D01*
D02*
G37*
G36*
X39961Y51543D02*
X39897Y51531D01*
X39844Y51495D01*
X39808Y51441D01*
X39795Y51378D01*
X39808Y51315D01*
X39844Y51261D01*
X39897Y51225D01*
X39961Y51213D01*
X40024Y51225D01*
X40077Y51261D01*
X40113Y51315D01*
X40126Y51378D01*
X40113Y51441D01*
X40077Y51495D01*
X40024Y51531D01*
X39961Y51543D01*
D02*
G37*
G36*
X39431Y50639D02*
X39203D01*
Y50430D01*
X39431D01*
Y50639D01*
D02*
G37*
G36*
X27328Y50820D02*
X27265Y50808D01*
X27212Y50772D01*
X27176Y50718D01*
X27163Y50655D01*
X27176Y50592D01*
X27212Y50538D01*
X27265Y50503D01*
X27328Y50490D01*
X27392Y50503D01*
X27445Y50538D01*
X27481Y50592D01*
X27494Y50655D01*
X27481Y50718D01*
X27445Y50772D01*
X27392Y50808D01*
X27328Y50820D01*
D02*
G37*
G36*
X43504Y50756D02*
X43441Y50743D01*
X43387Y50707D01*
X43351Y50654D01*
X43339Y50591D01*
X43351Y50527D01*
X43387Y50474D01*
X43441Y50438D01*
X43504Y50425D01*
X43567Y50438D01*
X43621Y50474D01*
X43657Y50527D01*
X43669Y50591D01*
X43657Y50654D01*
X43621Y50707D01*
X43567Y50743D01*
X43504Y50756D01*
D02*
G37*
G36*
X39103Y50639D02*
X38874D01*
Y50430D01*
X39103D01*
Y50639D01*
D02*
G37*
G36*
X44291Y51543D02*
X44228Y51531D01*
X44175Y51495D01*
X44139Y51441D01*
X44126Y51378D01*
X44139Y51315D01*
X44175Y51261D01*
X44228Y51225D01*
X44281Y51215D01*
X44277Y51165D01*
X44092D01*
Y51072D01*
X44044Y51057D01*
X44014Y51101D01*
X43961Y51137D01*
X43898Y51149D01*
X43834Y51137D01*
X43781Y51101D01*
X43745Y51047D01*
X43732Y50984D01*
X43745Y50921D01*
X43781Y50867D01*
X43834Y50832D01*
X43896Y50819D01*
X43908Y50811D01*
X43956Y50801D01*
X44092D01*
Y50689D01*
D01*
D01*
D01*
X44092D01*
X44092Y50689D01*
X44092Y50687D01*
Y50653D01*
D01*
D01*
X44092D01*
Y50468D01*
X43968Y50345D01*
X43961Y50349D01*
X43898Y50362D01*
X43834Y50349D01*
X43781Y50314D01*
X43745Y50260D01*
X43732Y50197D01*
X43745Y50134D01*
X43781Y50080D01*
X43834Y50044D01*
X43898Y50032D01*
X43961Y50044D01*
X44006Y50074D01*
X44044Y50082D01*
X44084Y50109D01*
X44150Y50175D01*
X44491D01*
Y50651D01*
X44491Y50651D01*
D01*
D01*
D01*
D01*
D01*
D01*
D01*
D01*
X44491Y50653D01*
Y50661D01*
Y50670D01*
Y50675D01*
Y50687D01*
X44491Y50688D01*
X44491Y50689D01*
D01*
X44491D01*
D01*
D01*
D01*
X44491Y50689D01*
Y51165D01*
X44306D01*
X44301Y51214D01*
X44301D01*
X44301Y51215D01*
X44355Y51225D01*
X44397Y51254D01*
X44522D01*
X44623Y51153D01*
Y50726D01*
X45141D01*
Y51283D01*
X44844D01*
X44661Y51466D01*
X44621Y51493D01*
X44574Y51502D01*
X44397D01*
X44355Y51531D01*
X44291Y51543D01*
D02*
G37*
G36*
X39103Y50948D02*
X38874D01*
Y50739D01*
X39103D01*
Y50948D01*
D02*
G37*
G36*
X30675Y50820D02*
X30612Y50808D01*
X30558Y50772D01*
X30522Y50718D01*
X30510Y50655D01*
X30522Y50592D01*
X30558Y50538D01*
X30612Y50503D01*
X30675Y50490D01*
X30738Y50503D01*
X30792Y50538D01*
X30827Y50592D01*
X30840Y50655D01*
X30827Y50718D01*
X30792Y50772D01*
X30738Y50808D01*
X30675Y50820D01*
D02*
G37*
G36*
X33858Y51051D02*
X33795Y51038D01*
X33741Y51003D01*
X33706Y50949D01*
X33693Y50886D01*
X33706Y50823D01*
X33741Y50769D01*
X33795Y50733D01*
X33858Y50721D01*
X33921Y50733D01*
X33975Y50769D01*
X34011Y50823D01*
X34023Y50886D01*
X34011Y50949D01*
X33975Y51003D01*
X33921Y51038D01*
X33858Y51051D01*
D02*
G37*
G36*
X41062Y51578D02*
X41062Y51578D01*
D01*
X41060Y51578D01*
X41043D01*
X41027D01*
X41025Y51578D01*
Y51578D01*
Y51578D01*
D01*
D01*
D01*
X40548D01*
Y51502D01*
X40460D01*
X40418Y51531D01*
X40354Y51543D01*
X40291Y51531D01*
X40238Y51495D01*
X40202Y51441D01*
X40189Y51378D01*
X40202Y51315D01*
X40238Y51261D01*
X40291Y51225D01*
X40354Y51213D01*
X40418Y51225D01*
X40460Y51254D01*
X40548D01*
Y51178D01*
X40661D01*
X40675Y51130D01*
X40631Y51101D01*
X40595Y51047D01*
X40583Y50984D01*
X40595Y50921D01*
X40631Y50867D01*
X40685Y50832D01*
X40748Y50819D01*
X40811Y50832D01*
X40865Y50867D01*
X40901Y50921D01*
X40913Y50984D01*
X40901Y51047D01*
X40865Y51101D01*
X40821Y51130D01*
X40836Y51178D01*
X41027D01*
D01*
X41027Y51178D01*
X41027Y51178D01*
Y51178D01*
X41027D01*
X41060D01*
X41062Y51178D01*
Y51178D01*
X41062D01*
D01*
D01*
X41062Y51178D01*
D01*
X41183D01*
X41184Y51173D01*
X41211Y51133D01*
X41373Y50971D01*
X41383Y50921D01*
X41419Y50867D01*
X41472Y50832D01*
X41535Y50819D01*
X41599Y50832D01*
X41652Y50867D01*
X41688Y50921D01*
X41701Y50984D01*
X41688Y51047D01*
X41652Y51101D01*
X41599Y51137D01*
X41549Y51147D01*
X41532Y51163D01*
X41538Y51178D01*
X41538D01*
Y51578D01*
X41062D01*
X41062Y51578D01*
D01*
D01*
D02*
G37*
G36*
X39370Y52921D02*
X39307Y52909D01*
X39253Y52873D01*
X39217Y52819D01*
X39205Y52756D01*
X39217Y52693D01*
X39253Y52639D01*
X39307Y52603D01*
X39370Y52591D01*
X39433Y52603D01*
X39487Y52639D01*
X39523Y52693D01*
X39535Y52756D01*
X39523Y52819D01*
X39487Y52873D01*
X39433Y52909D01*
X39370Y52921D01*
D02*
G37*
G36*
X34154Y52921D02*
X34090Y52909D01*
X34037Y52873D01*
X34001Y52819D01*
X33988Y52756D01*
X34001Y52693D01*
X34037Y52639D01*
X34090Y52603D01*
X34154Y52591D01*
X34217Y52603D01*
X34270Y52639D01*
X34306Y52693D01*
X34319Y52756D01*
X34306Y52819D01*
X34270Y52873D01*
X34217Y52909D01*
X34154Y52921D01*
D02*
G37*
G36*
X44254Y52607D02*
X44026D01*
Y52399D01*
X44254D01*
Y52607D01*
D02*
G37*
G36*
X44924Y52916D02*
X44367D01*
Y52399D01*
X44924D01*
Y52533D01*
X44973D01*
X45016Y52505D01*
X45079Y52492D01*
X45142Y52505D01*
X45196Y52541D01*
X45231Y52594D01*
X45244Y52657D01*
X45231Y52721D01*
X45196Y52774D01*
X45142Y52810D01*
X45079Y52823D01*
X45016Y52810D01*
X44973Y52782D01*
X44924D01*
Y52916D01*
D02*
G37*
G36*
X43926D02*
X43697D01*
Y52707D01*
X43926D01*
Y52916D01*
D02*
G37*
G36*
X44254D02*
X44026D01*
Y52707D01*
X44254D01*
Y52916D01*
D02*
G37*
G36*
X29000Y52957D02*
X28937Y52944D01*
X28883Y52908D01*
X28847Y52855D01*
X28835Y52791D01*
X28847Y52728D01*
X28883Y52675D01*
X28937Y52639D01*
X29000Y52626D01*
X29063Y52639D01*
X29117Y52675D01*
X29153Y52728D01*
X29165Y52791D01*
X29153Y52855D01*
X29117Y52908D01*
X29063Y52944D01*
X29000Y52957D01*
D02*
G37*
G36*
X35880Y53019D02*
X35817Y53007D01*
X35764Y52971D01*
X35728Y52918D01*
X35715Y52854D01*
X35728Y52791D01*
X35764Y52738D01*
X35817Y52702D01*
X35880Y52689D01*
X35944Y52702D01*
X35997Y52738D01*
X36033Y52791D01*
X36045Y52854D01*
X36033Y52918D01*
X35997Y52971D01*
X35944Y53007D01*
X35880Y53019D01*
D02*
G37*
G36*
X29331Y52035D02*
X29267Y52023D01*
X29214Y51987D01*
X29178Y51933D01*
X29166Y51870D01*
X29178Y51807D01*
X29214Y51753D01*
X29267Y51717D01*
X29331Y51705D01*
X29394Y51717D01*
X29448Y51753D01*
X29483Y51807D01*
X29496Y51870D01*
X29483Y51933D01*
X29448Y51987D01*
X29394Y52023D01*
X29331Y52035D01*
D02*
G37*
G36*
X27230Y52395D02*
X27167Y52383D01*
X27113Y52347D01*
X27077Y52293D01*
X27065Y52230D01*
X27077Y52167D01*
X27113Y52113D01*
X27167Y52077D01*
X27217Y52067D01*
X27343Y51941D01*
X27383Y51914D01*
X27400Y51911D01*
Y51792D01*
D01*
D01*
D01*
X27400D01*
X27400Y51792D01*
X27400Y51790D01*
Y51757D01*
D01*
D01*
X27400D01*
Y51592D01*
X27250Y51442D01*
X27201Y51432D01*
X27147Y51396D01*
X27111Y51343D01*
X27099Y51280D01*
X27111Y51216D01*
X27147Y51163D01*
X27201Y51127D01*
X27264Y51114D01*
X27327Y51127D01*
X27381Y51163D01*
X27416Y51216D01*
X27426Y51266D01*
X27438Y51278D01*
X27800D01*
Y51755D01*
X27800Y51755D01*
D01*
D01*
D01*
D01*
D01*
D01*
D01*
D01*
X27800Y51757D01*
Y51765D01*
Y51773D01*
Y51779D01*
Y51790D01*
X27800Y51791D01*
X27800Y51792D01*
X27800D01*
X27800Y51792D01*
Y52268D01*
X27400D01*
D01*
Y52268D01*
X27400D01*
Y52268D01*
Y52268D01*
X27387D01*
X27383Y52293D01*
X27347Y52347D01*
X27293Y52383D01*
X27230Y52395D01*
D02*
G37*
G36*
X39961Y51937D02*
X39897Y51924D01*
X39844Y51888D01*
X39808Y51835D01*
X39795Y51772D01*
X39808Y51708D01*
X39844Y51655D01*
X39897Y51619D01*
X39961Y51606D01*
X40024Y51619D01*
X40077Y51655D01*
X40113Y51708D01*
X40126Y51772D01*
X40113Y51835D01*
X40077Y51888D01*
X40024Y51924D01*
X39961Y51937D01*
D02*
G37*
G36*
X44685D02*
X44622Y51924D01*
X44568Y51888D01*
X44532Y51835D01*
X44520Y51772D01*
X44532Y51708D01*
X44568Y51655D01*
X44622Y51619D01*
X44685Y51606D01*
X44748Y51619D01*
X44802Y51655D01*
X44838Y51708D01*
X44850Y51772D01*
X44838Y51835D01*
X44802Y51888D01*
X44748Y51924D01*
X44685Y51937D01*
D02*
G37*
G36*
X45472Y52724D02*
X45409Y52712D01*
X45356Y52676D01*
X45320Y52622D01*
X45307Y52559D01*
X45320Y52496D01*
X45356Y52442D01*
X45409Y52406D01*
X45472Y52394D01*
X45536Y52406D01*
X45589Y52442D01*
X45625Y52496D01*
X45638Y52559D01*
X45625Y52622D01*
X45589Y52676D01*
X45536Y52712D01*
X45472Y52724D01*
D02*
G37*
G36*
X43926Y52607D02*
X43697D01*
Y52399D01*
X43926D01*
Y52607D01*
D02*
G37*
G36*
X45079Y52331D02*
X45016Y52318D01*
X44962Y52282D01*
X44926Y52229D01*
X44914Y52165D01*
X44926Y52102D01*
X44962Y52049D01*
X45016Y52013D01*
X45079Y52000D01*
X45142Y52013D01*
X45196Y52049D01*
X45231Y52102D01*
X45244Y52165D01*
X45231Y52229D01*
X45196Y52282D01*
X45142Y52318D01*
X45079Y52331D01*
D02*
G37*
G36*
X45472D02*
X45409Y52318D01*
X45356Y52282D01*
X45320Y52229D01*
X45307Y52165D01*
X45320Y52102D01*
X45356Y52049D01*
X45409Y52013D01*
X45472Y52000D01*
X45536Y52013D01*
X45589Y52049D01*
X45625Y52102D01*
X45638Y52165D01*
X45625Y52229D01*
X45589Y52282D01*
X45536Y52318D01*
X45472Y52331D01*
D02*
G37*
%LPD*%
D12*
X41400Y54335D02*
D03*
Y53665D02*
D03*
X35400Y50652D02*
D03*
Y49983D02*
D03*
X40256Y48976D02*
D03*
Y48306D02*
D03*
X44882Y50335D02*
D03*
Y51005D02*
D03*
X41400Y46748D02*
D03*
Y47417D02*
D03*
D21*
X49652Y55200D02*
D03*
X48983D02*
D03*
X35148Y55800D02*
D03*
X35817D02*
D03*
X49392Y49215D02*
D03*
X48723D02*
D03*
X39822Y50689D02*
D03*
X39153D02*
D03*
X44645Y52657D02*
D03*
X43976D02*
D03*
X43052Y51400D02*
D03*
X42383D02*
D03*
D30*
X23496Y39815D02*
Y40622D01*
X23890Y39815D02*
Y40622D01*
X24283Y39815D02*
Y40622D01*
X24677Y39815D02*
Y40622D01*
X25465Y39815D02*
Y40622D01*
X26252Y39815D02*
Y40622D01*
X26646Y39815D02*
Y40622D01*
X27039Y39815D02*
Y40622D01*
X27433Y39815D02*
Y40622D01*
X25858Y39815D02*
Y40622D01*
D31*
X49970Y47399D02*
X50098Y47271D01*
X41400Y53285D02*
Y53665D01*
X27264Y51280D02*
X27502Y51517D01*
X27600D01*
X27230Y52230D02*
X27431Y52029D01*
X27600D01*
X35236Y50984D02*
X35400Y50820D01*
Y50652D02*
Y50820D01*
Y49475D02*
Y49983D01*
X44587Y52657D02*
X45079D01*
X44193Y50394D02*
X44291D01*
X43898Y50197D02*
X43996D01*
X44193Y50394D01*
X44685Y49803D02*
X44882Y50000D01*
Y50335D01*
X40807Y46161D02*
X41339D01*
X40748Y47047D02*
X40750Y47045D01*
Y46616D02*
Y47045D01*
X39961Y49409D02*
X40256Y49114D01*
Y48976D02*
Y49114D01*
X40256Y50689D02*
X40354Y50591D01*
X39822Y50689D02*
X40256D01*
X41299Y51220D02*
X41535Y50984D01*
X41299Y51220D02*
Y51378D01*
X41929Y46654D02*
X42224Y46949D01*
Y46988D01*
X41228Y46161D02*
X41339D01*
X42717Y51772D02*
X42851D01*
X43052Y51570D01*
Y51400D02*
Y51570D01*
X42644Y50984D02*
X42717D01*
X42383Y51246D02*
X42644Y50984D01*
X42383Y51246D02*
Y51400D01*
X43307Y52657D02*
X43976D01*
X44882Y51005D02*
Y51070D01*
X44574Y51378D02*
X44882Y51070D01*
X44291Y51378D02*
X44574D01*
X43898Y50984D02*
X43956Y50926D01*
X44291D01*
X44685Y49409D02*
X44862Y49586D01*
X45079D01*
Y48622D02*
Y49074D01*
X43504Y49016D02*
X43544Y49056D01*
Y49409D01*
X43032Y49094D02*
X43110Y49016D01*
X43032Y49094D02*
Y49409D01*
X42657Y48169D02*
X42717Y48228D01*
X42323Y48169D02*
X42657D01*
X41988Y48681D02*
X42323D01*
X41929Y49016D02*
Y49230D01*
X41759Y49400D02*
X41929Y49230D01*
X41573Y49400D02*
X41759D01*
X41062Y49096D02*
X41142Y49016D01*
X41062Y49096D02*
Y49400D01*
X41929Y47835D02*
X42224Y47539D01*
Y47500D02*
Y47539D01*
X41567Y47835D02*
X41929D01*
X41400Y47667D02*
X41567Y47835D01*
X41400Y47417D02*
Y47667D01*
X41835Y46748D02*
X41929Y46654D01*
X41400Y46748D02*
X41835D01*
X40256Y47933D02*
X40354Y47835D01*
X40256Y47933D02*
Y48306D01*
X39567Y49094D02*
X39645Y49016D01*
X39567Y49094D02*
Y49409D01*
X39133Y48662D02*
Y49016D01*
X39153Y50275D02*
Y50689D01*
X40354Y51378D02*
X40787D01*
X48802Y48829D02*
Y49215D01*
X49313Y48822D02*
Y49215D01*
X50098Y47027D02*
Y47271D01*
X50128Y46081D02*
Y46486D01*
X23102Y39815D02*
Y40602D01*
X23299Y37630D02*
Y38240D01*
X24087Y37630D02*
Y38240D01*
X24480Y37630D02*
Y38240D01*
X24874Y37630D02*
Y38240D01*
X25268Y37630D02*
Y38240D01*
X25661Y37630D02*
Y38240D01*
X26055Y37630D02*
Y38240D01*
X26843Y37630D02*
Y38240D01*
X27236Y37630D02*
Y38240D01*
X27630Y37630D02*
Y38240D01*
X28024Y37630D02*
Y38240D01*
X28811Y37630D02*
Y38240D01*
X25071Y39815D02*
Y40622D01*
X22906Y38240D02*
Y39146D01*
X23693Y38240D02*
Y39047D01*
X26449Y37429D02*
Y38240D01*
X27827Y39815D02*
Y40524D01*
X28417Y37571D02*
Y38240D01*
X28221Y39815D02*
Y40484D01*
D34*
X49705Y55217D02*
X50295D01*
X48967D02*
Y55659D01*
X49163Y55856D01*
X44439Y55561D02*
X45030D01*
X44783Y54823D02*
X44980D01*
X44587Y54626D02*
X44783Y54823D01*
X44488Y54626D02*
X44587D01*
X41400Y54335D02*
Y54909D01*
X37348Y55516D02*
Y55800D01*
Y55516D02*
X37549Y55315D01*
X38017Y55800D02*
X38590D01*
X34688D02*
X35148D01*
X35817D02*
Y56240D01*
X36122Y56545D01*
D36*
X82600Y30600D02*
Y30000D01*
X83000D01*
X83300Y30400D02*
X83500D01*
X83600Y30300D01*
Y30000D01*
X83300D01*
X83200Y30100D01*
X83300Y30200D01*
X83600D01*
X83800Y30400D02*
Y30100D01*
X83900Y30000D01*
X84199D01*
Y29900D01*
X84100Y29800D01*
X84000D01*
X84199Y30000D02*
Y30400D01*
X84699Y30000D02*
X84499D01*
X84399Y30100D01*
Y30300D01*
X84499Y30400D01*
X84699D01*
X84799Y30300D01*
Y30200D01*
X84399D01*
X84999Y30400D02*
Y30000D01*
Y30200D01*
X85099Y30300D01*
X85199Y30400D01*
X85299D01*
X86599Y30600D02*
X86399Y30500D01*
X86199Y30300D01*
Y30100D01*
X86299Y30000D01*
X86499D01*
X86599Y30100D01*
Y30200D01*
X86499Y30300D01*
X86199D01*
D37*
X22400Y48832D02*
D03*
Y52769D02*
D03*
D38*
X15600Y42200D02*
D03*
D39*
Y41200D02*
D03*
Y40200D02*
D03*
Y39200D02*
D03*
Y38200D02*
D03*
Y37200D02*
D03*
Y36200D02*
D03*
Y35200D02*
D03*
D40*
X17000Y27819D02*
D03*
X77039D02*
D03*
Y64000D02*
D03*
X17000D02*
D03*
D41*
X55200Y53283D02*
D03*
X54806Y48232D02*
D03*
D42*
X39961Y51378D02*
D03*
X39000Y51700D02*
D03*
X24066Y50050D02*
D03*
X41400Y53285D02*
D03*
X26870Y55315D02*
D03*
X41929Y50984D02*
D03*
X35236D02*
D03*
X35400Y49475D02*
D03*
X31988Y51143D02*
D03*
X45079Y52657D02*
D03*
X43898Y50197D02*
D03*
X44685Y49803D02*
D03*
X40748Y47047D02*
D03*
X39961Y49409D02*
D03*
X40354Y50591D02*
D03*
X41535Y50984D02*
D03*
X49970Y47399D02*
D03*
X49803Y46100D02*
D03*
X50128Y46081D02*
D03*
X50584Y46143D02*
D03*
X49304Y48823D02*
D03*
X48793Y48819D02*
D03*
X40354Y47047D02*
D03*
X39961D02*
D03*
X38878Y47638D02*
D03*
X40748Y48622D02*
D03*
X50987Y47739D02*
D03*
X44685Y47835D02*
D03*
X44685Y48622D02*
D03*
X51863Y47448D02*
D03*
X50591Y48228D02*
D03*
X44685D02*
D03*
X36808Y51184D02*
D03*
X34547Y48720D02*
D03*
X29000Y52791D02*
D03*
X40354Y49409D02*
D03*
X29331Y51870D02*
D03*
X33858Y50886D02*
D03*
X27337Y53175D02*
D03*
X38583Y49705D02*
D03*
X38780Y46850D02*
D03*
X44291Y47047D02*
D03*
X44291Y48228D02*
D03*
X49508Y48425D02*
D03*
X49409Y50000D02*
D03*
X44291Y49016D02*
D03*
X27328Y50655D02*
D03*
X33366Y48032D02*
D03*
X27461Y50295D02*
D03*
X27362Y49902D02*
D03*
X36417Y47441D02*
D03*
X55893Y49200D02*
D03*
X56004Y50689D02*
D03*
Y52165D02*
D03*
X29000Y48657D02*
D03*
X28370Y48697D02*
D03*
X27264Y51280D02*
D03*
X27230Y52230D02*
D03*
X30260Y53303D02*
D03*
X30675Y50655D02*
D03*
X45472Y46260D02*
D03*
X44685Y46654D02*
D03*
X44291Y47441D02*
D03*
X36024Y47933D02*
D03*
X45472Y52559D02*
D03*
X45079Y52165D02*
D03*
Y46654D02*
D03*
X36614Y46457D02*
D03*
X39567Y46654D02*
D03*
X39173Y46260D02*
D03*
X41929Y46654D02*
D03*
X43307Y46161D02*
D03*
X41339Y46161D02*
D03*
X45472Y52165D02*
D03*
X34154Y52756D02*
D03*
X35880Y52854D02*
D03*
X44685Y51772D02*
D03*
X43307Y52657D02*
D03*
X41339D02*
D03*
X39370Y52756D02*
D03*
X39961Y51772D02*
D03*
X47343Y49606D02*
D03*
X49409Y51673D02*
D03*
X46600Y51423D02*
D03*
X46457Y49705D02*
D03*
X44685Y49409D02*
D03*
X45571Y50394D02*
D03*
X45079Y48622D02*
D03*
X39173D02*
D03*
X39075Y50197D02*
D03*
X42717Y50984D02*
D03*
Y50591D02*
D03*
X43110D02*
D03*
X43504D02*
D03*
X43110Y50197D02*
D03*
X42717D02*
D03*
Y49803D02*
D03*
X43110D02*
D03*
X43504D02*
D03*
Y50197D02*
D03*
X43898Y49803D02*
D03*
Y50984D02*
D03*
X44291Y51378D02*
D03*
X42717Y49016D02*
D03*
X43110D02*
D03*
X43504D02*
D03*
X43898D02*
D03*
X43504Y48622D02*
D03*
X43110D02*
D03*
X42717D02*
D03*
Y48228D02*
D03*
X43110D02*
D03*
X43504D02*
D03*
X42717Y47835D02*
D03*
X43898D02*
D03*
X44291D02*
D03*
X43898Y48622D02*
D03*
X51290Y48720D02*
D03*
X51870Y48720D02*
D03*
X51607Y48786D02*
D03*
X50975Y48720D02*
D03*
X48201Y49339D02*
D03*
X50328Y49918D02*
D03*
X49902Y50000D02*
D03*
X51862Y52026D02*
D03*
X48466D02*
D03*
X41929Y50591D02*
D03*
Y50197D02*
D03*
Y49803D02*
D03*
X41535D02*
D03*
X41142Y50197D02*
D03*
Y50591D02*
D03*
X41535Y50197D02*
D03*
Y50591D02*
D03*
X40748Y50984D02*
D03*
X40354Y51378D02*
D03*
X40748Y49803D02*
D03*
X41142D02*
D03*
X41929Y49016D02*
D03*
X41535D02*
D03*
X41142D02*
D03*
X40748D02*
D03*
X41929Y48622D02*
D03*
X41535D02*
D03*
X41142D02*
D03*
Y48228D02*
D03*
X41535D02*
D03*
X41929D02*
D03*
Y47835D02*
D03*
X40748D02*
D03*
X40354D02*
D03*
X39567Y47441D02*
D03*
X34301Y47785D02*
D03*
X39567Y49409D02*
D03*
X50532Y50600D02*
D03*
X53200Y47833D02*
D03*
X42717Y51772D02*
D03*
X23102Y40602D02*
D03*
X23496Y40622D02*
D03*
X23890D02*
D03*
X24283D02*
D03*
X24677D02*
D03*
X25465D02*
D03*
X26252D02*
D03*
X26646D02*
D03*
X27039D02*
D03*
X27433D02*
D03*
X25858Y40622D02*
D03*
X23299Y37630D02*
D03*
X24087D02*
D03*
X24480D02*
D03*
X24874D02*
D03*
X25268D02*
D03*
X25661D02*
D03*
X26055D02*
D03*
X26843D02*
D03*
X27236D02*
D03*
X27630D02*
D03*
X28024D02*
D03*
X28811D02*
D03*
X28417Y37571D02*
D03*
X28221Y40484D02*
D03*
D43*
X30100Y55333D02*
D03*
X31765Y56326D02*
D03*
X21555Y47835D02*
D03*
X22392Y49557D02*
D03*
X22441Y50394D02*
D03*
Y51968D02*
D03*
X22244Y53691D02*
D03*
X24232Y53162D02*
D03*
X24100Y55331D02*
D03*
X25100D02*
D03*
X26100D02*
D03*
X28100D02*
D03*
X29100D02*
D03*
X31100Y59069D02*
D03*
X30100D02*
D03*
X29100D02*
D03*
X27100D02*
D03*
X26100D02*
D03*
X25100D02*
D03*
X24100D02*
D03*
X53367Y54400D02*
D03*
X52215Y55217D02*
D03*
X51476Y55167D02*
D03*
X49768Y53951D02*
D03*
X50197Y55217D02*
D03*
X48228Y54577D02*
D03*
X47293Y55463D02*
D03*
X49065Y57333D02*
D03*
X48228Y58218D02*
D03*
X49163Y55856D02*
D03*
X49000Y52132D02*
D03*
X52559Y53543D02*
D03*
X47293Y54035D02*
D03*
X44882D02*
D03*
X45620Y54675D02*
D03*
X46878Y57306D02*
D03*
X46000Y58205D02*
D03*
X44488Y54626D02*
D03*
X44439Y55561D02*
D03*
X43012Y55315D02*
D03*
X42028Y53789D02*
D03*
X41400Y54909D02*
D03*
X39442Y54894D02*
D03*
X39383Y56706D02*
D03*
X36700Y55229D02*
D03*
X38507Y54600D02*
D03*
X37549Y55315D02*
D03*
X38590Y55800D02*
D03*
X36200Y56525D02*
D03*
X35700Y55097D02*
D03*
X35200Y56483D02*
D03*
X34688Y55800D02*
D03*
X34252Y56299D02*
D03*
Y58120D02*
D03*
X33415Y58957D02*
D03*
X38927Y57530D02*
D03*
X41683Y58366D02*
D03*
X43900Y57269D02*
D03*
X42168Y57200D02*
D03*
X37000Y58600D02*
D03*
X35400Y58700D02*
D03*
X52000D02*
D03*
X50400D02*
D03*
X51900Y56900D02*
D03*
X50500D02*
D03*
X22933Y39075D02*
D03*
X23693Y39047D02*
D03*
X26449Y37429D02*
D03*
X27827Y40524D02*
D03*
D44*
X25071Y40622D02*
D03*
D45*
X45000Y55456D02*
D03*
Y54944D02*
D03*
X50098Y46515D02*
D03*
Y47027D02*
D03*
X27600Y51517D02*
D03*
Y52029D02*
D03*
X45079Y49074D02*
D03*
Y49586D02*
D03*
X40750Y46105D02*
D03*
Y46616D02*
D03*
X44291Y50926D02*
D03*
Y50414D02*
D03*
X42224Y47500D02*
D03*
Y46988D02*
D03*
X42323Y48169D02*
D03*
Y48681D02*
D03*
D46*
X37938Y55800D02*
D03*
X37427D02*
D03*
X39133Y49016D02*
D03*
X39645D02*
D03*
X40787Y51378D02*
D03*
X41299D02*
D03*
X43544Y49409D02*
D03*
X43032D02*
D03*
X41062Y49400D02*
D03*
X41573D02*
D03*
D47*
X28614Y39815D02*
D03*
X28811Y38240D02*
D03*
X28221Y39815D02*
D03*
X27827D02*
D03*
X27433D02*
D03*
X27039D02*
D03*
X26646D02*
D03*
X26252D02*
D03*
X25858D02*
D03*
X25465D02*
D03*
X25071D02*
D03*
X24677D02*
D03*
X24283D02*
D03*
X23890D02*
D03*
X23496D02*
D03*
X23102D02*
D03*
X28417Y38240D02*
D03*
X28024D02*
D03*
X27630D02*
D03*
X27236D02*
D03*
X26843D02*
D03*
X26449D02*
D03*
X26055D02*
D03*
X25661D02*
D03*
X25268D02*
D03*
X24874D02*
D03*
X24480D02*
D03*
X24087D02*
D03*
X23693D02*
D03*
X23299D02*
D03*
X22906D02*
D03*
D48*
X21783Y39028D02*
D03*
X29933D02*
D03*
M02*
